<?xml version="1.0" encoding="utf-8"?>
<svg xmlns="http://www.w3.org/2000/svg" xmlns:xlink="http://www.w3.org/1999/xlink" width="600" height="400" viewBox="0 0 2400 1600">
<defs>
  <clipPath id="clip560">
    <rect x="0" y="0" width="2400" height="1600"/>
  </clipPath>
</defs>
<path clip-path="url(#clip560)" d="
M0 1600 L2400 1600 L2400 0 L0 0  Z
  " fill="#ffffff" fill-rule="evenodd" fill-opacity="1"/>
<defs>
  <clipPath id="clip561">
    <rect x="480" y="0" width="1681" height="1600"/>
  </clipPath>
</defs>
<path clip-path="url(#clip560)" d="
M126.969 1486.45 L2352.76 1486.45 L2352.76 47.2441 L126.969 47.2441  Z
  " fill="#ffffff" fill-rule="evenodd" fill-opacity="1"/>
<defs>
  <clipPath id="clip562">
    <rect x="126" y="47" width="2227" height="1440"/>
  </clipPath>
</defs>
<polyline clip-path="url(#clip562)" style="stroke:#000000; stroke-width:2; stroke-opacity:0.1; fill:none" points="
  504.7,1486.45 504.7,47.2441 
  "/>
<polyline clip-path="url(#clip562)" style="stroke:#000000; stroke-width:2; stroke-opacity:0.1; fill:none" points="
  937.238,1486.45 937.238,47.2441 
  "/>
<polyline clip-path="url(#clip562)" style="stroke:#000000; stroke-width:2; stroke-opacity:0.1; fill:none" points="
  1369.78,1486.45 1369.78,47.2441 
  "/>
<polyline clip-path="url(#clip562)" style="stroke:#000000; stroke-width:2; stroke-opacity:0.1; fill:none" points="
  1802.31,1486.45 1802.31,47.2441 
  "/>
<polyline clip-path="url(#clip562)" style="stroke:#000000; stroke-width:2; stroke-opacity:0.1; fill:none" points="
  2234.85,1486.45 2234.85,47.2441 
  "/>
<polyline clip-path="url(#clip562)" style="stroke:#000000; stroke-width:2; stroke-opacity:0.1; fill:none" points="
  126.969,1336.42 2352.76,1336.42 
  "/>
<polyline clip-path="url(#clip562)" style="stroke:#000000; stroke-width:2; stroke-opacity:0.1; fill:none" points="
  126.969,993.668 2352.76,993.668 
  "/>
<polyline clip-path="url(#clip562)" style="stroke:#000000; stroke-width:2; stroke-opacity:0.1; fill:none" points="
  126.969,650.913 2352.76,650.913 
  "/>
<polyline clip-path="url(#clip562)" style="stroke:#000000; stroke-width:2; stroke-opacity:0.1; fill:none" points="
  126.969,308.157 2352.76,308.157 
  "/>
<polyline clip-path="url(#clip560)" style="stroke:#000000; stroke-width:4; stroke-opacity:1; fill:none" points="
  126.969,1486.45 2352.76,1486.45 
  "/>
<polyline clip-path="url(#clip560)" style="stroke:#000000; stroke-width:4; stroke-opacity:1; fill:none" points="
  126.969,1486.45 126.969,47.2441 
  "/>
<polyline clip-path="url(#clip560)" style="stroke:#000000; stroke-width:4; stroke-opacity:1; fill:none" points="
  504.7,1486.45 504.7,1469.18 
  "/>
<polyline clip-path="url(#clip560)" style="stroke:#000000; stroke-width:4; stroke-opacity:1; fill:none" points="
  937.238,1486.45 937.238,1469.18 
  "/>
<polyline clip-path="url(#clip560)" style="stroke:#000000; stroke-width:4; stroke-opacity:1; fill:none" points="
  1369.78,1486.45 1369.78,1469.18 
  "/>
<polyline clip-path="url(#clip560)" style="stroke:#000000; stroke-width:4; stroke-opacity:1; fill:none" points="
  1802.31,1486.45 1802.31,1469.18 
  "/>
<polyline clip-path="url(#clip560)" style="stroke:#000000; stroke-width:4; stroke-opacity:1; fill:none" points="
  2234.85,1486.45 2234.85,1469.18 
  "/>
<polyline clip-path="url(#clip560)" style="stroke:#000000; stroke-width:4; stroke-opacity:1; fill:none" points="
  126.969,1336.42 153.678,1336.42 
  "/>
<polyline clip-path="url(#clip560)" style="stroke:#000000; stroke-width:4; stroke-opacity:1; fill:none" points="
  126.969,993.668 153.678,993.668 
  "/>
<polyline clip-path="url(#clip560)" style="stroke:#000000; stroke-width:4; stroke-opacity:1; fill:none" points="
  126.969,650.913 153.678,650.913 
  "/>
<polyline clip-path="url(#clip560)" style="stroke:#000000; stroke-width:4; stroke-opacity:1; fill:none" points="
  126.969,308.157 153.678,308.157 
  "/>
<path clip-path="url(#clip560)" d="M 0 0 M466.969 1525.04 L479.446 1525.04 L479.446 1528.83 L466.969 1528.83 L466.969 1525.04 Z" fill="#000000" fill-rule="evenodd" fill-opacity="1" /><path clip-path="url(#clip560)" d="M 0 0 M484.562 1505.36 L502.918 1505.36 L502.918 1509.3 L488.844 1509.3 L488.844 1517.77 Q489.863 1517.42 490.881 1517.26 Q491.9 1517.07 492.918 1517.07 Q498.705 1517.07 502.085 1520.24 Q505.464 1523.42 505.464 1528.83 Q505.464 1534.41 501.992 1537.51 Q498.52 1540.59 492.2 1540.59 Q490.025 1540.59 487.756 1540.22 Q485.511 1539.85 483.103 1539.11 L483.103 1534.41 Q485.187 1535.54 487.409 1536.1 Q489.631 1536.66 492.108 1536.66 Q496.113 1536.66 498.45 1534.55 Q500.788 1532.44 500.788 1528.83 Q500.788 1525.22 498.45 1523.11 Q496.113 1521.01 492.108 1521.01 Q490.233 1521.01 488.358 1521.42 Q486.506 1521.84 484.562 1522.72 L484.562 1505.36 Z" fill="#000000" fill-rule="evenodd" fill-opacity="1" /><path clip-path="url(#clip560)" d="M 0 0 M510.534 1534.04 L515.418 1534.04 L515.418 1539.92 L510.534 1539.92 L510.534 1534.04 Z" fill="#000000" fill-rule="evenodd" fill-opacity="1" /><path clip-path="url(#clip560)" d="M 0 0 M530.487 1508.44 Q526.876 1508.44 525.048 1512 Q523.242 1515.55 523.242 1522.67 Q523.242 1529.78 525.048 1533.35 Q526.876 1536.89 530.487 1536.89 Q534.122 1536.89 535.927 1533.35 Q537.756 1529.78 537.756 1522.67 Q537.756 1515.55 535.927 1512 Q534.122 1508.44 530.487 1508.44 M530.487 1504.73 Q536.297 1504.73 539.353 1509.34 Q542.432 1513.92 542.432 1522.67 Q542.432 1531.4 539.353 1536.01 Q536.297 1540.59 530.487 1540.59 Q524.677 1540.59 521.598 1536.01 Q518.543 1531.4 518.543 1522.67 Q518.543 1513.92 521.598 1509.34 Q524.677 1504.73 530.487 1504.73 Z" fill="#000000" fill-rule="evenodd" fill-opacity="1" /><path clip-path="url(#clip560)" d="M 0 0 M900.306 1525.04 L912.782 1525.04 L912.782 1528.83 L900.306 1528.83 L900.306 1525.04 Z" fill="#000000" fill-rule="evenodd" fill-opacity="1" /><path clip-path="url(#clip560)" d="M 0 0 M921.88 1535.98 L938.199 1535.98 L938.199 1539.92 L916.255 1539.92 L916.255 1535.98 Q918.917 1533.23 923.5 1528.6 Q928.106 1523.95 929.287 1522.61 Q931.532 1520.08 932.412 1518.35 Q933.315 1516.59 933.315 1514.9 Q933.315 1512.14 931.37 1510.41 Q929.449 1508.67 926.347 1508.67 Q924.148 1508.67 921.694 1509.43 Q919.264 1510.2 916.486 1511.75 L916.486 1507.03 Q919.31 1505.89 921.764 1505.31 Q924.217 1504.73 926.254 1504.73 Q931.625 1504.73 934.819 1507.42 Q938.014 1510.11 938.014 1514.6 Q938.014 1516.73 937.203 1518.65 Q936.416 1520.54 934.31 1523.14 Q933.731 1523.81 930.629 1527.03 Q927.528 1530.22 921.88 1535.98 Z" fill="#000000" fill-rule="evenodd" fill-opacity="1" /><path clip-path="url(#clip560)" d="M 0 0 M943.268 1534.04 L948.153 1534.04 L948.153 1539.92 L943.268 1539.92 L943.268 1534.04 Z" fill="#000000" fill-rule="evenodd" fill-opacity="1" /><path clip-path="url(#clip560)" d="M 0 0 M953.268 1505.36 L971.625 1505.36 L971.625 1509.3 L957.551 1509.3 L957.551 1517.77 Q958.569 1517.42 959.588 1517.26 Q960.606 1517.07 961.625 1517.07 Q967.412 1517.07 970.791 1520.24 Q974.171 1523.42 974.171 1528.83 Q974.171 1534.41 970.699 1537.51 Q967.226 1540.59 960.907 1540.59 Q958.731 1540.59 956.463 1540.22 Q954.217 1539.85 951.81 1539.11 L951.81 1534.41 Q953.893 1535.54 956.115 1536.1 Q958.338 1536.66 960.814 1536.66 Q964.819 1536.66 967.157 1534.55 Q969.495 1532.44 969.495 1528.83 Q969.495 1525.22 967.157 1523.11 Q964.819 1521.01 960.814 1521.01 Q958.939 1521.01 957.065 1521.42 Q955.213 1521.84 953.268 1522.72 L953.268 1505.36 Z" fill="#000000" fill-rule="evenodd" fill-opacity="1" /><path clip-path="url(#clip560)" d="M 0 0 M1351.29 1508.44 Q1347.68 1508.44 1345.85 1512 Q1344.05 1515.55 1344.05 1522.67 Q1344.05 1529.78 1345.85 1533.35 Q1347.68 1536.89 1351.29 1536.89 Q1354.93 1536.89 1356.73 1533.35 Q1358.56 1529.78 1358.56 1522.67 Q1358.56 1515.55 1356.73 1512 Q1354.93 1508.44 1351.29 1508.44 M1351.29 1504.73 Q1357.1 1504.73 1360.16 1509.34 Q1363.24 1513.92 1363.24 1522.67 Q1363.24 1531.4 1360.16 1536.01 Q1357.1 1540.59 1351.29 1540.59 Q1345.48 1540.59 1342.4 1536.01 Q1339.35 1531.4 1339.35 1522.67 Q1339.35 1513.92 1342.4 1509.34 Q1345.48 1504.73 1351.29 1504.73 Z" fill="#000000" fill-rule="evenodd" fill-opacity="1" /><path clip-path="url(#clip560)" d="M 0 0 M1368.31 1534.04 L1373.19 1534.04 L1373.19 1539.92 L1368.31 1539.92 L1368.31 1534.04 Z" fill="#000000" fill-rule="evenodd" fill-opacity="1" /><path clip-path="url(#clip560)" d="M 0 0 M1388.26 1508.44 Q1384.65 1508.44 1382.82 1512 Q1381.01 1515.55 1381.01 1522.67 Q1381.01 1529.78 1382.82 1533.35 Q1384.65 1536.89 1388.26 1536.89 Q1391.89 1536.89 1393.7 1533.35 Q1395.53 1529.78 1395.53 1522.67 Q1395.53 1515.55 1393.7 1512 Q1391.89 1508.44 1388.26 1508.44 M1388.26 1504.73 Q1394.07 1504.73 1397.13 1509.34 Q1400.2 1513.92 1400.2 1522.67 Q1400.2 1531.4 1397.13 1536.01 Q1394.07 1540.59 1388.26 1540.59 Q1382.45 1540.59 1379.37 1536.01 Q1376.32 1531.4 1376.32 1522.67 Q1376.32 1513.92 1379.37 1509.34 Q1382.45 1504.73 1388.26 1504.73 Z" fill="#000000" fill-rule="evenodd" fill-opacity="1" /><path clip-path="url(#clip560)" d="M 0 0 M1778.98 1535.98 L1795.3 1535.98 L1795.3 1539.92 L1773.36 1539.92 L1773.36 1535.98 Q1776.02 1533.23 1780.6 1528.6 Q1785.21 1523.95 1786.39 1522.61 Q1788.63 1520.08 1789.51 1518.35 Q1790.42 1516.59 1790.42 1514.9 Q1790.42 1512.14 1788.47 1510.41 Q1786.55 1508.67 1783.45 1508.67 Q1781.25 1508.67 1778.8 1509.43 Q1776.36 1510.2 1773.59 1511.75 L1773.59 1507.03 Q1776.41 1505.89 1778.86 1505.31 Q1781.32 1504.73 1783.36 1504.73 Q1788.73 1504.73 1791.92 1507.42 Q1795.11 1510.11 1795.11 1514.6 Q1795.11 1516.73 1794.3 1518.65 Q1793.52 1520.54 1791.41 1523.14 Q1790.83 1523.81 1787.73 1527.03 Q1784.63 1530.22 1778.98 1535.98 Z" fill="#000000" fill-rule="evenodd" fill-opacity="1" /><path clip-path="url(#clip560)" d="M 0 0 M1800.37 1534.04 L1805.25 1534.04 L1805.25 1539.92 L1800.37 1539.92 L1800.37 1534.04 Z" fill="#000000" fill-rule="evenodd" fill-opacity="1" /><path clip-path="url(#clip560)" d="M 0 0 M1810.37 1505.36 L1828.73 1505.36 L1828.73 1509.3 L1814.65 1509.3 L1814.65 1517.77 Q1815.67 1517.42 1816.69 1517.26 Q1817.71 1517.07 1818.73 1517.07 Q1824.51 1517.07 1827.89 1520.24 Q1831.27 1523.42 1831.27 1528.83 Q1831.27 1534.41 1827.8 1537.51 Q1824.33 1540.59 1818.01 1540.59 Q1815.83 1540.59 1813.56 1540.22 Q1811.32 1539.85 1808.91 1539.11 L1808.91 1534.41 Q1810.99 1535.54 1813.22 1536.1 Q1815.44 1536.66 1817.92 1536.66 Q1821.92 1536.66 1824.26 1534.55 Q1826.6 1532.44 1826.6 1528.83 Q1826.6 1525.22 1824.26 1523.11 Q1821.92 1521.01 1817.92 1521.01 Q1816.04 1521.01 1814.17 1521.42 Q1812.31 1521.84 1810.37 1522.72 L1810.37 1505.36 Z" fill="#000000" fill-rule="evenodd" fill-opacity="1" /><path clip-path="url(#clip560)" d="M 0 0 M2206.65 1505.36 L2225 1505.36 L2225 1509.3 L2210.93 1509.3 L2210.93 1517.77 Q2211.95 1517.42 2212.97 1517.26 Q2213.98 1517.07 2215 1517.07 Q2220.79 1517.07 2224.17 1520.24 Q2227.55 1523.42 2227.55 1528.83 Q2227.55 1534.41 2224.08 1537.51 Q2220.6 1540.59 2214.28 1540.59 Q2212.11 1540.59 2209.84 1540.22 Q2207.59 1539.85 2205.19 1539.11 L2205.19 1534.41 Q2207.27 1535.54 2209.49 1536.1 Q2211.72 1536.66 2214.19 1536.66 Q2218.2 1536.66 2220.53 1534.55 Q2222.87 1532.44 2222.87 1528.83 Q2222.87 1525.22 2220.53 1523.11 Q2218.2 1521.01 2214.19 1521.01 Q2212.32 1521.01 2210.44 1521.42 Q2208.59 1521.84 2206.65 1522.72 L2206.65 1505.36 Z" fill="#000000" fill-rule="evenodd" fill-opacity="1" /><path clip-path="url(#clip560)" d="M 0 0 M2232.62 1534.04 L2237.5 1534.04 L2237.5 1539.92 L2232.62 1539.92 L2232.62 1534.04 Z" fill="#000000" fill-rule="evenodd" fill-opacity="1" /><path clip-path="url(#clip560)" d="M 0 0 M2252.57 1508.44 Q2248.96 1508.44 2247.13 1512 Q2245.33 1515.55 2245.33 1522.67 Q2245.33 1529.78 2247.13 1533.35 Q2248.96 1536.89 2252.57 1536.89 Q2256.21 1536.89 2258.01 1533.35 Q2259.84 1529.78 2259.84 1522.67 Q2259.84 1515.55 2258.01 1512 Q2256.21 1508.44 2252.57 1508.44 M2252.57 1504.73 Q2258.38 1504.73 2261.44 1509.34 Q2264.52 1513.92 2264.52 1522.67 Q2264.52 1531.4 2261.44 1536.01 Q2258.38 1540.59 2252.57 1540.59 Q2246.76 1540.59 2243.68 1536.01 Q2240.63 1531.4 2240.63 1522.67 Q2240.63 1513.92 2243.68 1509.34 Q2246.76 1504.73 2252.57 1504.73 Z" fill="#000000" fill-rule="evenodd" fill-opacity="1" /><path clip-path="url(#clip560)" d="M 0 0 M62.9921 1338.82 L75.4689 1338.82 L75.4689 1342.62 L62.9921 1342.62 L62.9921 1338.82 Z" fill="#000000" fill-rule="evenodd" fill-opacity="1" /><path clip-path="url(#clip560)" d="M 0 0 M93.3855 1323.22 L81.58 1341.67 L93.3855 1341.67 L93.3855 1323.22 M92.1586 1319.14 L98.0382 1319.14 L98.0382 1341.67 L102.969 1341.67 L102.969 1345.56 L98.0382 1345.56 L98.0382 1353.7 L93.3855 1353.7 L93.3855 1345.56 L77.7837 1345.56 L77.7837 1341.04 L92.1586 1319.14 Z" fill="#000000" fill-rule="evenodd" fill-opacity="1" /><path clip-path="url(#clip560)" d="M 0 0 M65.0754 996.064 L77.5522 996.064 L77.5522 999.86 L65.0754 999.86 L65.0754 996.064 Z" fill="#000000" fill-rule="evenodd" fill-opacity="1" /><path clip-path="url(#clip560)" d="M 0 0 M86.6494 1007.01 L102.969 1007.01 L102.969 1010.95 L81.0244 1010.95 L81.0244 1007.01 Q83.6865 1004.26 88.2698 999.629 Q92.8762 994.976 94.0568 993.634 Q96.3021 991.11 97.1818 989.374 Q98.0845 987.615 98.0845 985.925 Q98.0845 983.171 96.1401 981.435 Q94.2188 979.698 91.117 979.698 Q88.9179 979.698 86.4642 980.462 Q84.0337 981.226 81.2559 982.777 L81.2559 978.055 Q84.08 976.921 86.5337 976.342 Q88.9874 975.763 91.0244 975.763 Q96.3947 975.763 99.5892 978.448 Q102.784 981.134 102.784 985.624 Q102.784 987.754 101.973 989.675 Q101.186 991.573 99.0799 994.166 Q98.5012 994.837 95.3994 998.055 Q92.2975 1001.25 86.6494 1007.01 Z" fill="#000000" fill-rule="evenodd" fill-opacity="1" /><path clip-path="url(#clip560)" d="M 0 0 M91.0244 636.711 Q87.4133 636.711 85.5846 640.276 Q83.7791 643.818 83.7791 650.947 Q83.7791 658.054 85.5846 661.619 Q87.4133 665.16 91.0244 665.16 Q94.6586 665.16 96.4642 661.619 Q98.2929 658.054 98.2929 650.947 Q98.2929 643.818 96.4642 640.276 Q94.6586 636.711 91.0244 636.711 M91.0244 633.008 Q96.8345 633.008 99.8901 637.614 Q102.969 642.198 102.969 650.947 Q102.969 659.674 99.8901 664.281 Q96.8345 668.864 91.0244 668.864 Q85.2142 668.864 82.1355 664.281 Q79.08 659.674 79.08 650.947 Q79.08 642.198 82.1355 637.614 Q85.2142 633.008 91.0244 633.008 Z" fill="#000000" fill-rule="evenodd" fill-opacity="1" /><path clip-path="url(#clip560)" d="M 0 0 M86.6494 321.502 L102.969 321.502 L102.969 325.437 L81.0244 325.437 L81.0244 321.502 Q83.6865 318.747 88.2698 314.118 Q92.8762 309.465 94.0568 308.123 Q96.3021 305.599 97.1818 303.863 Q98.0845 302.104 98.0845 300.414 Q98.0845 297.66 96.1401 295.924 Q94.2188 294.187 91.117 294.187 Q88.9179 294.187 86.4642 294.951 Q84.0337 295.715 81.2559 297.266 L81.2559 292.544 Q84.08 291.41 86.5337 290.831 Q88.9874 290.252 91.0244 290.252 Q96.3947 290.252 99.5892 292.937 Q102.784 295.623 102.784 300.113 Q102.784 302.243 101.973 304.164 Q101.186 306.062 99.0799 308.655 Q98.5012 309.326 95.3994 312.544 Q92.2975 315.738 86.6494 321.502 Z" fill="#000000" fill-rule="evenodd" fill-opacity="1" /><polyline clip-path="url(#clip562)" style="stroke:#000000; stroke-width:4; stroke-opacity:1; fill:none" points="
  1626.93,581.958 1656.32,581.958 
  "/>
<polyline clip-path="url(#clip562)" style="stroke:#000000; stroke-width:4; stroke-opacity:1; fill:none" points="
  697.611,955.158 756.115,955.158 
  "/>
<polyline clip-path="url(#clip562)" style="stroke:#000000; stroke-width:4; stroke-opacity:1; fill:none" points="
  1682.21,398.486 1711.1,398.486 
  "/>
<polyline clip-path="url(#clip562)" style="stroke:#000000; stroke-width:4; stroke-opacity:1; fill:none" points="
  1398.77,112.989 1454.82,112.989 
  "/>
<polyline clip-path="url(#clip562)" style="stroke:#000000; stroke-width:4; stroke-opacity:1; fill:none" points="
  1450.68,280.379 1495.44,280.379 
  "/>
<polyline clip-path="url(#clip562)" style="stroke:#000000; stroke-width:4; stroke-opacity:1; fill:none" points="
  2242.92,875.157 2278.73,875.157 
  "/>
<polyline clip-path="url(#clip562)" style="stroke:#000000; stroke-width:4; stroke-opacity:1; fill:none" points="
  1819.62,371.349 1847.88,371.349 
  "/>
<polyline clip-path="url(#clip562)" style="stroke:#000000; stroke-width:4; stroke-opacity:1; fill:none" points="
  455.091,1182.54 509.717,1182.54 
  "/>
<polyline clip-path="url(#clip562)" style="stroke:#000000; stroke-width:4; stroke-opacity:1; fill:none" points="
  189.963,1419.33 244.982,1419.33 
  "/>
<polyline clip-path="url(#clip562)" style="stroke:#000000; stroke-width:4; stroke-opacity:1; fill:none" points="
  1447.87,331.159 1484,331.159 
  "/>
<line clip-path="url(#clip562)" x1="1626.93" y1="605.958" x2="1626.93" y2="557.958" style="stroke:#000000; stroke-width:3.2; stroke-opacity:1"/>
<line clip-path="url(#clip562)" x1="1656.32" y1="605.958" x2="1656.32" y2="557.958" style="stroke:#000000; stroke-width:3.2; stroke-opacity:1"/>
<line clip-path="url(#clip562)" x1="697.611" y1="979.158" x2="697.611" y2="931.158" style="stroke:#000000; stroke-width:3.2; stroke-opacity:1"/>
<line clip-path="url(#clip562)" x1="756.115" y1="979.158" x2="756.115" y2="931.158" style="stroke:#000000; stroke-width:3.2; stroke-opacity:1"/>
<line clip-path="url(#clip562)" x1="1682.21" y1="422.486" x2="1682.21" y2="374.486" style="stroke:#000000; stroke-width:3.2; stroke-opacity:1"/>
<line clip-path="url(#clip562)" x1="1711.1" y1="422.486" x2="1711.1" y2="374.486" style="stroke:#000000; stroke-width:3.2; stroke-opacity:1"/>
<line clip-path="url(#clip562)" x1="1398.77" y1="136.989" x2="1398.77" y2="88.9886" style="stroke:#000000; stroke-width:3.2; stroke-opacity:1"/>
<line clip-path="url(#clip562)" x1="1454.82" y1="136.989" x2="1454.82" y2="88.9886" style="stroke:#000000; stroke-width:3.2; stroke-opacity:1"/>
<line clip-path="url(#clip562)" x1="1450.68" y1="304.379" x2="1450.68" y2="256.379" style="stroke:#000000; stroke-width:3.2; stroke-opacity:1"/>
<line clip-path="url(#clip562)" x1="1495.44" y1="304.379" x2="1495.44" y2="256.379" style="stroke:#000000; stroke-width:3.2; stroke-opacity:1"/>
<line clip-path="url(#clip562)" x1="2242.92" y1="899.157" x2="2242.92" y2="851.157" style="stroke:#000000; stroke-width:3.2; stroke-opacity:1"/>
<line clip-path="url(#clip562)" x1="2278.73" y1="899.157" x2="2278.73" y2="851.157" style="stroke:#000000; stroke-width:3.2; stroke-opacity:1"/>
<line clip-path="url(#clip562)" x1="1819.62" y1="395.349" x2="1819.62" y2="347.349" style="stroke:#000000; stroke-width:3.2; stroke-opacity:1"/>
<line clip-path="url(#clip562)" x1="1847.88" y1="395.349" x2="1847.88" y2="347.349" style="stroke:#000000; stroke-width:3.2; stroke-opacity:1"/>
<line clip-path="url(#clip562)" x1="455.091" y1="1206.54" x2="455.091" y2="1158.54" style="stroke:#000000; stroke-width:3.2; stroke-opacity:1"/>
<line clip-path="url(#clip562)" x1="509.717" y1="1206.54" x2="509.717" y2="1158.54" style="stroke:#000000; stroke-width:3.2; stroke-opacity:1"/>
<line clip-path="url(#clip562)" x1="189.963" y1="1443.33" x2="189.963" y2="1395.33" style="stroke:#000000; stroke-width:3.2; stroke-opacity:1"/>
<line clip-path="url(#clip562)" x1="244.982" y1="1443.33" x2="244.982" y2="1395.33" style="stroke:#000000; stroke-width:3.2; stroke-opacity:1"/>
<line clip-path="url(#clip562)" x1="1447.87" y1="355.159" x2="1447.87" y2="307.159" style="stroke:#000000; stroke-width:3.2; stroke-opacity:1"/>
<line clip-path="url(#clip562)" x1="1484" y1="355.159" x2="1484" y2="307.159" style="stroke:#000000; stroke-width:3.2; stroke-opacity:1"/>
<polyline clip-path="url(#clip562)" style="stroke:#000000; stroke-width:4; stroke-opacity:1; fill:none" points="
  1641.34,619.339 1641.34,545.144 
  "/>
<polyline clip-path="url(#clip562)" style="stroke:#000000; stroke-width:4; stroke-opacity:1; fill:none" points="
  725.697,978.198 725.697,931.145 
  "/>
<polyline clip-path="url(#clip562)" style="stroke:#000000; stroke-width:4; stroke-opacity:1; fill:none" points="
  1696.46,429.709 1696.46,366.932 
  "/>
<polyline clip-path="url(#clip562)" style="stroke:#000000; stroke-width:4; stroke-opacity:1; fill:none" points="
  1428.34,139.83 1428.34,87.9763 
  "/>
<polyline clip-path="url(#clip562)" style="stroke:#000000; stroke-width:4; stroke-opacity:1; fill:none" points="
  1472.08,309.417 1472.08,247.87 
  "/>
<polyline clip-path="url(#clip562)" style="stroke:#000000; stroke-width:4; stroke-opacity:1; fill:none" points="
  2259.31,906.232 2259.31,843.824 
  "/>
<polyline clip-path="url(#clip562)" style="stroke:#000000; stroke-width:4; stroke-opacity:1; fill:none" points="
  1833.47,402.113 1833.47,340.761 
  "/>
<polyline clip-path="url(#clip562)" style="stroke:#000000; stroke-width:4; stroke-opacity:1; fill:none" points="
  483.345,1205.57 483.345,1158.79 
  "/>
<polyline clip-path="url(#clip562)" style="stroke:#000000; stroke-width:4; stroke-opacity:1; fill:none" points="
  218.702,1445.72 218.702,1393.11 
  "/>
<polyline clip-path="url(#clip562)" style="stroke:#000000; stroke-width:4; stroke-opacity:1; fill:none" points="
  1465.84,361.449 1465.84,298.328 
  "/>
<line clip-path="url(#clip562)" x1="1665.34" y1="619.339" x2="1617.34" y2="619.339" style="stroke:#000000; stroke-width:3.2; stroke-opacity:1"/>
<line clip-path="url(#clip562)" x1="1665.34" y1="545.144" x2="1617.34" y2="545.144" style="stroke:#000000; stroke-width:3.2; stroke-opacity:1"/>
<line clip-path="url(#clip562)" x1="749.697" y1="978.198" x2="701.697" y2="978.198" style="stroke:#000000; stroke-width:3.2; stroke-opacity:1"/>
<line clip-path="url(#clip562)" x1="749.697" y1="931.145" x2="701.697" y2="931.145" style="stroke:#000000; stroke-width:3.2; stroke-opacity:1"/>
<line clip-path="url(#clip562)" x1="1720.46" y1="429.709" x2="1672.46" y2="429.709" style="stroke:#000000; stroke-width:3.2; stroke-opacity:1"/>
<line clip-path="url(#clip562)" x1="1720.46" y1="366.932" x2="1672.46" y2="366.932" style="stroke:#000000; stroke-width:3.2; stroke-opacity:1"/>
<line clip-path="url(#clip562)" x1="1452.34" y1="139.83" x2="1404.34" y2="139.83" style="stroke:#000000; stroke-width:3.2; stroke-opacity:1"/>
<line clip-path="url(#clip562)" x1="1452.34" y1="87.9763" x2="1404.34" y2="87.9763" style="stroke:#000000; stroke-width:3.2; stroke-opacity:1"/>
<line clip-path="url(#clip562)" x1="1496.08" y1="309.417" x2="1448.08" y2="309.417" style="stroke:#000000; stroke-width:3.2; stroke-opacity:1"/>
<line clip-path="url(#clip562)" x1="1496.08" y1="247.87" x2="1448.08" y2="247.87" style="stroke:#000000; stroke-width:3.2; stroke-opacity:1"/>
<line clip-path="url(#clip562)" x1="2283.31" y1="906.232" x2="2235.31" y2="906.232" style="stroke:#000000; stroke-width:3.2; stroke-opacity:1"/>
<line clip-path="url(#clip562)" x1="2283.31" y1="843.824" x2="2235.31" y2="843.824" style="stroke:#000000; stroke-width:3.2; stroke-opacity:1"/>
<line clip-path="url(#clip562)" x1="1857.47" y1="402.113" x2="1809.47" y2="402.113" style="stroke:#000000; stroke-width:3.2; stroke-opacity:1"/>
<line clip-path="url(#clip562)" x1="1857.47" y1="340.761" x2="1809.47" y2="340.761" style="stroke:#000000; stroke-width:3.2; stroke-opacity:1"/>
<line clip-path="url(#clip562)" x1="507.345" y1="1205.57" x2="459.345" y2="1205.57" style="stroke:#000000; stroke-width:3.2; stroke-opacity:1"/>
<line clip-path="url(#clip562)" x1="507.345" y1="1158.79" x2="459.345" y2="1158.79" style="stroke:#000000; stroke-width:3.2; stroke-opacity:1"/>
<line clip-path="url(#clip562)" x1="242.702" y1="1445.72" x2="194.702" y2="1445.72" style="stroke:#000000; stroke-width:3.2; stroke-opacity:1"/>
<line clip-path="url(#clip562)" x1="242.702" y1="1393.11" x2="194.702" y2="1393.11" style="stroke:#000000; stroke-width:3.2; stroke-opacity:1"/>
<line clip-path="url(#clip562)" x1="1489.84" y1="361.449" x2="1441.84" y2="361.449" style="stroke:#000000; stroke-width:3.2; stroke-opacity:1"/>
<line clip-path="url(#clip562)" x1="1489.84" y1="298.328" x2="1441.84" y2="298.328" style="stroke:#000000; stroke-width:3.2; stroke-opacity:1"/>
<circle clip-path="url(#clip562)" cx="1641.34" cy="581.958" r="21" fill="#009af9" fill-rule="evenodd" fill-opacity="1" stroke="#000000" stroke-opacity="1" stroke-width="3.2"/>
<circle clip-path="url(#clip562)" cx="725.697" cy="955.158" r="21" fill="#009af9" fill-rule="evenodd" fill-opacity="1" stroke="#000000" stroke-opacity="1" stroke-width="3.2"/>
<circle clip-path="url(#clip562)" cx="1696.46" cy="398.486" r="21" fill="#009af9" fill-rule="evenodd" fill-opacity="1" stroke="#000000" stroke-opacity="1" stroke-width="3.2"/>
<circle clip-path="url(#clip562)" cx="1428.34" cy="112.989" r="21" fill="#009af9" fill-rule="evenodd" fill-opacity="1" stroke="#000000" stroke-opacity="1" stroke-width="3.2"/>
<circle clip-path="url(#clip562)" cx="1472.08" cy="280.379" r="21" fill="#009af9" fill-rule="evenodd" fill-opacity="1" stroke="#000000" stroke-opacity="1" stroke-width="3.2"/>
<circle clip-path="url(#clip562)" cx="2259.31" cy="875.157" r="21" fill="#009af9" fill-rule="evenodd" fill-opacity="1" stroke="#000000" stroke-opacity="1" stroke-width="3.2"/>
<circle clip-path="url(#clip562)" cx="1833.47" cy="371.349" r="21" fill="#009af9" fill-rule="evenodd" fill-opacity="1" stroke="#000000" stroke-opacity="1" stroke-width="3.2"/>
<circle clip-path="url(#clip562)" cx="483.345" cy="1182.54" r="21" fill="#009af9" fill-rule="evenodd" fill-opacity="1" stroke="#000000" stroke-opacity="1" stroke-width="3.2"/>
<circle clip-path="url(#clip562)" cx="218.702" cy="1419.33" r="21" fill="#009af9" fill-rule="evenodd" fill-opacity="1" stroke="#000000" stroke-opacity="1" stroke-width="3.2"/>
<circle clip-path="url(#clip562)" cx="1465.84" cy="331.159" r="21" fill="#009af9" fill-rule="evenodd" fill-opacity="1" stroke="#000000" stroke-opacity="1" stroke-width="3.2"/>
<circle clip-path="url(#clip562)" cx="1638.27" cy="602.093" r="14" fill="#e26f46" fill-rule="evenodd" fill-opacity="1" stroke="#000000" stroke-opacity="1" stroke-width="3.2"/>
<circle clip-path="url(#clip562)" cx="711.782" cy="950.426" r="14" fill="#e26f46" fill-rule="evenodd" fill-opacity="1" stroke="#000000" stroke-opacity="1" stroke-width="3.2"/>
<circle clip-path="url(#clip562)" cx="1692.8" cy="384.102" r="14" fill="#e26f46" fill-rule="evenodd" fill-opacity="1" stroke="#000000" stroke-opacity="1" stroke-width="3.2"/>
<circle clip-path="url(#clip562)" cx="1419.95" cy="108.801" r="14" fill="#e26f46" fill-rule="evenodd" fill-opacity="1" stroke="#000000" stroke-opacity="1" stroke-width="3.2"/>
<circle clip-path="url(#clip562)" cx="1466.84" cy="275.18" r="14" fill="#e26f46" fill-rule="evenodd" fill-opacity="1" stroke="#000000" stroke-opacity="1" stroke-width="3.2"/>
<circle clip-path="url(#clip562)" cx="2260.63" cy="875.14" r="14" fill="#e26f46" fill-rule="evenodd" fill-opacity="1" stroke="#000000" stroke-opacity="1" stroke-width="3.2"/>
<circle clip-path="url(#clip562)" cx="1839.11" cy="399.589" r="14" fill="#e26f46" fill-rule="evenodd" fill-opacity="1" stroke="#000000" stroke-opacity="1" stroke-width="3.2"/>
<circle clip-path="url(#clip562)" cx="465.887" cy="1172.61" r="14" fill="#e26f46" fill-rule="evenodd" fill-opacity="1" stroke="#000000" stroke-opacity="1" stroke-width="3.2"/>
<circle clip-path="url(#clip562)" cx="211.159" cy="1417.94" r="14" fill="#e26f46" fill-rule="evenodd" fill-opacity="1" stroke="#000000" stroke-opacity="1" stroke-width="3.2"/>
<circle clip-path="url(#clip562)" cx="1461.36" cy="323.257" r="14" fill="#e26f46" fill-rule="evenodd" fill-opacity="1" stroke="#000000" stroke-opacity="1" stroke-width="3.2"/>
<circle clip-path="url(#clip562)" cx="1589.97" cy="579.514" r="14" fill="#3da44d" fill-rule="evenodd" fill-opacity="1" stroke="#000000" stroke-opacity="1" stroke-width="3.2"/>
<circle clip-path="url(#clip562)" cx="718.097" cy="966.236" r="14" fill="#3da44d" fill-rule="evenodd" fill-opacity="1" stroke="#000000" stroke-opacity="1" stroke-width="3.2"/>
<circle clip-path="url(#clip562)" cx="1696.08" cy="398.734" r="14" fill="#3da44d" fill-rule="evenodd" fill-opacity="1" stroke="#000000" stroke-opacity="1" stroke-width="3.2"/>
<circle clip-path="url(#clip562)" cx="1429.28" cy="113.314" r="14" fill="#3da44d" fill-rule="evenodd" fill-opacity="1" stroke="#000000" stroke-opacity="1" stroke-width="3.2"/>
<circle clip-path="url(#clip562)" cx="1478.92" cy="275.821" r="14" fill="#3da44d" fill-rule="evenodd" fill-opacity="1" stroke="#000000" stroke-opacity="1" stroke-width="3.2"/>
<circle clip-path="url(#clip562)" cx="2289.76" cy="881.824" r="14" fill="#3da44d" fill-rule="evenodd" fill-opacity="1" stroke="#000000" stroke-opacity="1" stroke-width="3.2"/>
<circle clip-path="url(#clip562)" cx="1844.07" cy="368.799" r="14" fill="#3da44d" fill-rule="evenodd" fill-opacity="1" stroke="#000000" stroke-opacity="1" stroke-width="3.2"/>
<circle clip-path="url(#clip562)" cx="485.13" cy="1180.58" r="14" fill="#3da44d" fill-rule="evenodd" fill-opacity="1" stroke="#000000" stroke-opacity="1" stroke-width="3.2"/>
<circle clip-path="url(#clip562)" cx="227.616" cy="1409.86" r="14" fill="#3da44d" fill-rule="evenodd" fill-opacity="1" stroke="#000000" stroke-opacity="1" stroke-width="3.2"/>
<circle clip-path="url(#clip562)" cx="1469.93" cy="328.563" r="14" fill="#3da44d" fill-rule="evenodd" fill-opacity="1" stroke="#000000" stroke-opacity="1" stroke-width="3.2"/>
<polyline clip-path="url(#clip562)" style="stroke:#000000; stroke-width:4; stroke-opacity:1; fill:none" points="
  974.942,557.2 1013.09,557.2 
  "/>
<line clip-path="url(#clip562)" x1="974.942" y1="589.2" x2="974.942" y2="525.2" style="stroke:#000000; stroke-width:3.2; stroke-opacity:1"/>
<line clip-path="url(#clip562)" x1="1013.09" y1="589.2" x2="1013.09" y2="525.2" style="stroke:#000000; stroke-width:3.2; stroke-opacity:1"/>
<polyline clip-path="url(#clip562)" style="stroke:#000000; stroke-width:4; stroke-opacity:1; fill:none" points="
  993.311,577.464 993.311,535.311 
  "/>
<line clip-path="url(#clip562)" x1="1025.31" y1="577.464" x2="961.311" y2="577.464" style="stroke:#000000; stroke-width:3.2; stroke-opacity:1"/>
<line clip-path="url(#clip562)" x1="1025.31" y1="535.311" x2="961.311" y2="535.311" style="stroke:#000000; stroke-width:3.2; stroke-opacity:1"/>
<line clip-path="url(#clip562)" x1="993.311" y1="557.2" x2="961.311" y2="525.2" style="stroke:#c271d2; stroke-width:3.2; stroke-opacity:1"/>
<line clip-path="url(#clip562)" x1="993.311" y1="557.2" x2="961.311" y2="589.2" style="stroke:#c271d2; stroke-width:3.2; stroke-opacity:1"/>
<line clip-path="url(#clip562)" x1="993.311" y1="557.2" x2="1025.31" y2="589.2" style="stroke:#c271d2; stroke-width:3.2; stroke-opacity:1"/>
<line clip-path="url(#clip562)" x1="993.311" y1="557.2" x2="1025.31" y2="525.2" style="stroke:#c271d2; stroke-width:3.2; stroke-opacity:1"/>
<line clip-path="url(#clip562)" x1="992.687" y1="561.103" x2="960.687" y2="529.103" style="stroke:#ac8d18; stroke-width:3.2; stroke-opacity:1"/>
<line clip-path="url(#clip562)" x1="992.687" y1="561.103" x2="960.687" y2="593.103" style="stroke:#ac8d18; stroke-width:3.2; stroke-opacity:1"/>
<line clip-path="url(#clip562)" x1="992.687" y1="561.103" x2="1024.69" y2="593.103" style="stroke:#ac8d18; stroke-width:3.2; stroke-opacity:1"/>
<line clip-path="url(#clip562)" x1="992.687" y1="561.103" x2="1024.69" y2="529.103" style="stroke:#ac8d18; stroke-width:3.2; stroke-opacity:1"/>
<path clip-path="url(#clip560)" d="
M1518.28 493.644 L2280.76 493.644 L2280.76 130.764 L1518.28 130.764  Z
  " fill="#ffffff" fill-rule="evenodd" fill-opacity="1"/>
<polyline clip-path="url(#clip560)" style="stroke:#000000; stroke-width:4; stroke-opacity:1; fill:none" points="
  1518.28,493.644 2280.76,493.644 2280.76,130.764 1518.28,130.764 1518.28,493.644 
  "/>
<circle clip-path="url(#clip560)" cx="1626.28" cy="191.244" r="23" fill="#009af9" fill-rule="evenodd" fill-opacity="1" stroke="#000000" stroke-opacity="1" stroke-width="3.41333"/>
<path clip-path="url(#clip560)" d="M 0 0 M1710.28 173.964 L1717.25 173.964 L1726.07 197.482 L1734.93 173.964 L1741.9 173.964 L1741.9 208.524 L1737.34 208.524 L1737.34 178.177 L1728.43 201.881 L1723.73 201.881 L1714.82 178.177 L1714.82 208.524 L1710.28 208.524 L1710.28 173.964 Z" fill="#000000" fill-rule="evenodd" fill-opacity="1" /><path clip-path="url(#clip560)" d="M 0 0 M1768.55 194.496 L1768.55 196.58 L1748.96 196.58 Q1749.24 200.978 1751.6 203.293 Q1753.99 205.584 1758.22 205.584 Q1760.68 205.584 1762.97 204.982 Q1765.28 204.381 1767.55 203.177 L1767.55 207.205 Q1765.26 208.177 1762.85 208.686 Q1760.44 209.195 1757.97 209.195 Q1751.76 209.195 1748.13 205.584 Q1744.52 201.973 1744.52 195.816 Q1744.52 189.45 1747.94 185.723 Q1751.39 181.973 1757.23 181.973 Q1762.46 181.973 1765.49 185.353 Q1768.55 188.709 1768.55 194.496 M1764.29 193.246 Q1764.24 189.751 1762.32 187.668 Q1760.42 185.584 1757.27 185.584 Q1753.71 185.584 1751.55 187.598 Q1749.43 189.612 1749.1 193.27 L1764.29 193.246 Z" fill="#000000" fill-rule="evenodd" fill-opacity="1" /><path clip-path="url(#clip560)" d="M 0 0 M1784.8 195.492 Q1779.63 195.492 1777.64 196.672 Q1775.65 197.853 1775.65 200.7 Q1775.65 202.969 1777.13 204.311 Q1778.64 205.631 1781.21 205.631 Q1784.75 205.631 1786.88 203.131 Q1789.03 200.607 1789.03 196.441 L1789.03 195.492 L1784.8 195.492 M1793.29 193.733 L1793.29 208.524 L1789.03 208.524 L1789.03 204.589 Q1787.57 206.95 1785.4 208.084 Q1783.22 209.195 1780.07 209.195 Q1776.09 209.195 1773.73 206.973 Q1771.39 204.728 1771.39 200.978 Q1771.39 196.603 1774.31 194.381 Q1777.25 192.158 1783.06 192.158 L1789.03 192.158 L1789.03 191.742 Q1789.03 188.802 1787.09 187.205 Q1785.17 185.584 1781.67 185.584 Q1779.45 185.584 1777.34 186.117 Q1775.24 186.649 1773.29 187.714 L1773.29 183.779 Q1775.63 182.876 1777.83 182.436 Q1780.03 181.973 1782.11 181.973 Q1787.74 181.973 1790.51 184.89 Q1793.29 187.807 1793.29 193.733 Z" fill="#000000" fill-rule="evenodd" fill-opacity="1" /><path clip-path="url(#clip560)" d="M 0 0 M1819.31 192.876 L1819.31 208.524 L1815.05 208.524 L1815.05 193.015 Q1815.05 189.334 1813.61 187.506 Q1812.18 185.677 1809.31 185.677 Q1805.86 185.677 1803.87 187.876 Q1801.88 190.075 1801.88 193.871 L1801.88 208.524 L1797.6 208.524 L1797.6 182.598 L1801.88 182.598 L1801.88 186.626 Q1803.41 184.288 1805.47 183.131 Q1807.55 181.973 1810.26 181.973 Q1814.73 181.973 1817.02 184.751 Q1819.31 187.506 1819.31 192.876 Z" fill="#000000" fill-rule="evenodd" fill-opacity="1" /><path clip-path="url(#clip560)" d="M 0 0 M1836.37 182.598 L1840.63 182.598 L1845.95 202.83 L1851.25 182.598 L1856.28 182.598 L1861.6 202.83 L1866.9 182.598 L1871.16 182.598 L1864.38 208.524 L1859.36 208.524 L1853.78 187.274 L1848.17 208.524 L1843.15 208.524 L1836.37 182.598 Z" fill="#000000" fill-rule="evenodd" fill-opacity="1" /><path clip-path="url(#clip560)" d="M 0 0 M1875.63 182.598 L1879.89 182.598 L1879.89 208.524 L1875.63 208.524 L1875.63 182.598 M1875.63 172.506 L1879.89 172.506 L1879.89 177.899 L1875.63 177.899 L1875.63 172.506 Z" fill="#000000" fill-rule="evenodd" fill-opacity="1" /><path clip-path="url(#clip560)" d="M 0 0 M1888.57 175.237 L1888.57 182.598 L1897.34 182.598 L1897.34 185.908 L1888.57 185.908 L1888.57 199.982 Q1888.57 203.154 1889.42 204.057 Q1890.3 204.959 1892.97 204.959 L1897.34 204.959 L1897.34 208.524 L1892.97 208.524 Q1888.04 208.524 1886.16 206.695 Q1884.29 204.844 1884.29 199.982 L1884.29 185.908 L1881.16 185.908 L1881.16 182.598 L1884.29 182.598 L1884.29 175.237 L1888.57 175.237 Z" fill="#000000" fill-rule="evenodd" fill-opacity="1" /><path clip-path="url(#clip560)" d="M 0 0 M1923.36 192.876 L1923.36 208.524 L1919.1 208.524 L1919.1 193.015 Q1919.1 189.334 1917.67 187.506 Q1916.23 185.677 1913.36 185.677 Q1909.91 185.677 1907.92 187.876 Q1905.93 190.075 1905.93 193.871 L1905.93 208.524 L1901.65 208.524 L1901.65 172.506 L1905.93 172.506 L1905.93 186.626 Q1907.46 184.288 1909.52 183.131 Q1911.6 181.973 1914.31 181.973 Q1918.78 181.973 1921.07 184.751 Q1923.36 187.506 1923.36 192.876 Z" fill="#000000" fill-rule="evenodd" fill-opacity="1" /><path clip-path="url(#clip560)" d="M 0 0 M1953.5 177.043 Q1949.89 177.043 1948.06 180.608 Q1946.25 184.149 1946.25 191.279 Q1946.25 198.385 1948.06 201.95 Q1949.89 205.492 1953.5 205.492 Q1957.13 205.492 1958.94 201.95 Q1960.77 198.385 1960.77 191.279 Q1960.77 184.149 1958.94 180.608 Q1957.13 177.043 1953.5 177.043 M1953.5 173.339 Q1959.31 173.339 1962.36 177.946 Q1965.44 182.529 1965.44 191.279 Q1965.44 200.006 1962.36 204.612 Q1959.31 209.195 1953.5 209.195 Q1947.69 209.195 1944.61 204.612 Q1941.55 200.006 1941.55 191.279 Q1941.55 182.529 1944.61 177.946 Q1947.69 173.339 1953.5 173.339 Z" fill="#000000" fill-rule="evenodd" fill-opacity="1" /><path clip-path="url(#clip560)" d="M 0 0 M1970.51 202.644 L1975.4 202.644 L1975.4 208.524 L1970.51 208.524 L1970.51 202.644 Z" fill="#000000" fill-rule="evenodd" fill-opacity="1" /><path clip-path="url(#clip560)" d="M 0 0 M1990.47 177.043 Q1986.85 177.043 1985.03 180.608 Q1983.22 184.149 1983.22 191.279 Q1983.22 198.385 1985.03 201.95 Q1986.85 205.492 1990.47 205.492 Q1994.1 205.492 1995.91 201.95 Q1997.73 198.385 1997.73 191.279 Q1997.73 184.149 1995.91 180.608 Q1994.1 177.043 1990.47 177.043 M1990.47 173.339 Q1996.28 173.339 1999.33 177.946 Q2002.41 182.529 2002.41 191.279 Q2002.41 200.006 1999.33 204.612 Q1996.28 209.195 1990.47 209.195 Q1984.66 209.195 1981.58 204.612 Q1978.52 200.006 1978.52 191.279 Q1978.52 182.529 1981.58 177.946 Q1984.66 173.339 1990.47 173.339 Z" fill="#000000" fill-rule="evenodd" fill-opacity="1" /><path clip-path="url(#clip560)" d="M 0 0 M2011.51 204.589 L2027.83 204.589 L2027.83 208.524 L2005.88 208.524 L2005.88 204.589 Q2008.54 201.834 2013.13 197.205 Q2017.73 192.552 2018.91 191.209 Q2021.16 188.686 2022.04 186.95 Q2022.94 185.191 2022.94 183.501 Q2022.94 180.746 2021 179.01 Q2019.08 177.274 2015.97 177.274 Q2013.78 177.274 2011.32 178.038 Q2008.89 178.802 2006.11 180.353 L2006.11 175.631 Q2008.94 174.496 2011.39 173.918 Q2013.85 173.339 2015.88 173.339 Q2021.25 173.339 2024.45 176.024 Q2027.64 178.709 2027.64 183.2 Q2027.64 185.33 2026.83 187.251 Q2026.04 189.149 2023.94 191.742 Q2023.36 192.413 2020.26 195.631 Q2017.16 198.825 2011.51 204.589 Z" fill="#000000" fill-rule="evenodd" fill-opacity="1" /><path clip-path="url(#clip560)" d="M 0 0 M2032.94 173.964 L2051.3 173.964 L2051.3 177.899 L2037.22 177.899 L2037.22 186.371 Q2038.24 186.024 2039.26 185.862 Q2040.28 185.677 2041.3 185.677 Q2047.09 185.677 2050.47 188.848 Q2053.84 192.02 2053.84 197.436 Q2053.84 203.015 2050.37 206.117 Q2046.9 209.195 2040.58 209.195 Q2038.41 209.195 2036.14 208.825 Q2033.89 208.455 2031.48 207.714 L2031.48 203.015 Q2033.57 204.149 2035.79 204.705 Q2038.01 205.26 2040.49 205.26 Q2044.49 205.26 2046.83 203.154 Q2049.17 201.047 2049.17 197.436 Q2049.17 193.825 2046.83 191.719 Q2044.49 189.612 2040.49 189.612 Q2038.61 189.612 2036.74 190.029 Q2034.89 190.445 2032.94 191.325 L2032.94 173.964 Z" fill="#000000" fill-rule="evenodd" fill-opacity="1" /><path clip-path="url(#clip560)" d="M 0 0 M2075.93 195.584 Q2075.93 200.283 2077.85 202.969 Q2079.79 205.631 2083.17 205.631 Q2086.55 205.631 2088.5 202.969 Q2090.44 200.283 2090.44 195.584 Q2090.44 190.885 2088.5 188.223 Q2086.55 185.538 2083.17 185.538 Q2079.79 185.538 2077.85 188.223 Q2075.93 190.885 2075.93 195.584 M2090.44 204.635 Q2089.1 206.95 2087.04 208.084 Q2085 209.195 2082.13 209.195 Q2077.43 209.195 2074.47 205.445 Q2071.53 201.695 2071.53 195.584 Q2071.53 189.473 2074.47 185.723 Q2077.43 181.973 2082.13 181.973 Q2085 181.973 2087.04 183.108 Q2089.1 184.219 2090.44 186.533 L2090.44 182.598 L2094.7 182.598 L2094.7 218.385 L2090.44 218.385 L2090.44 204.635 Z" fill="#000000" fill-rule="evenodd" fill-opacity="1" /><path clip-path="url(#clip560)" d="M 0 0 M2098.73 198.293 L2098.73 182.598 L2102.99 182.598 L2102.99 198.131 Q2102.99 201.811 2104.42 203.663 Q2105.86 205.492 2108.73 205.492 Q2112.18 205.492 2114.17 203.293 Q2116.18 201.094 2116.18 197.297 L2116.18 182.598 L2120.44 182.598 L2120.44 208.524 L2116.18 208.524 L2116.18 204.543 Q2114.63 206.904 2112.57 208.061 Q2110.53 209.195 2107.83 209.195 Q2103.36 209.195 2101.04 206.418 Q2098.73 203.64 2098.73 198.293 M2109.45 181.973 L2109.45 181.973 Z" fill="#000000" fill-rule="evenodd" fill-opacity="1" /><path clip-path="url(#clip560)" d="M 0 0 M2136.69 195.492 Q2131.53 195.492 2129.54 196.672 Q2127.55 197.853 2127.55 200.7 Q2127.55 202.969 2129.03 204.311 Q2130.53 205.631 2133.1 205.631 Q2136.65 205.631 2138.77 203.131 Q2140.93 200.607 2140.93 196.441 L2140.93 195.492 L2136.69 195.492 M2145.19 193.733 L2145.19 208.524 L2140.93 208.524 L2140.93 204.589 Q2139.47 206.95 2137.29 208.084 Q2135.12 209.195 2131.97 209.195 Q2127.99 209.195 2125.63 206.973 Q2123.29 204.728 2123.29 200.978 Q2123.29 196.603 2126.21 194.381 Q2129.15 192.158 2134.96 192.158 L2140.93 192.158 L2140.93 191.742 Q2140.93 188.802 2138.98 187.205 Q2137.06 185.584 2133.57 185.584 Q2131.34 185.584 2129.24 186.117 Q2127.13 186.649 2125.19 187.714 L2125.19 183.779 Q2127.52 182.876 2129.72 182.436 Q2131.92 181.973 2134.01 181.973 Q2139.63 181.973 2142.41 184.89 Q2145.19 187.807 2145.19 193.733 Z" fill="#000000" fill-rule="evenodd" fill-opacity="1" /><path clip-path="url(#clip560)" d="M 0 0 M2171.21 192.876 L2171.21 208.524 L2166.95 208.524 L2166.95 193.015 Q2166.95 189.334 2165.51 187.506 Q2164.08 185.677 2161.21 185.677 Q2157.76 185.677 2155.77 187.876 Q2153.77 190.075 2153.77 193.871 L2153.77 208.524 L2149.49 208.524 L2149.49 182.598 L2153.77 182.598 L2153.77 186.626 Q2155.3 184.288 2157.36 183.131 Q2159.45 181.973 2162.15 181.973 Q2166.62 181.973 2168.91 184.751 Q2171.21 187.506 2171.21 192.876 Z" fill="#000000" fill-rule="evenodd" fill-opacity="1" /><path clip-path="url(#clip560)" d="M 0 0 M2179.89 175.237 L2179.89 182.598 L2188.66 182.598 L2188.66 185.908 L2179.89 185.908 L2179.89 199.982 Q2179.89 203.154 2180.74 204.057 Q2181.62 204.959 2184.28 204.959 L2188.66 204.959 L2188.66 208.524 L2184.28 208.524 Q2179.35 208.524 2177.48 206.695 Q2175.6 204.844 2175.6 199.982 L2175.6 185.908 L2172.48 185.908 L2172.48 182.598 L2175.6 182.598 L2175.6 175.237 L2179.89 175.237 Z" fill="#000000" fill-rule="evenodd" fill-opacity="1" /><path clip-path="url(#clip560)" d="M 0 0 M2193.13 182.598 L2197.39 182.598 L2197.39 208.524 L2193.13 208.524 L2193.13 182.598 M2193.13 172.506 L2197.39 172.506 L2197.39 177.899 L2193.13 177.899 L2193.13 172.506 Z" fill="#000000" fill-rule="evenodd" fill-opacity="1" /><path clip-path="url(#clip560)" d="M 0 0 M2201.85 172.506 L2206.11 172.506 L2206.11 208.524 L2201.85 208.524 L2201.85 172.506 Z" fill="#000000" fill-rule="evenodd" fill-opacity="1" /><path clip-path="url(#clip560)" d="M 0 0 M2232.76 194.496 L2232.76 196.58 L2213.17 196.58 Q2213.45 200.978 2215.81 203.293 Q2218.2 205.584 2222.43 205.584 Q2224.89 205.584 2227.18 204.982 Q2229.49 204.381 2231.76 203.177 L2231.76 207.205 Q2229.47 208.177 2227.06 208.686 Q2224.65 209.195 2222.18 209.195 Q2215.97 209.195 2212.34 205.584 Q2208.73 201.973 2208.73 195.816 Q2208.73 189.45 2212.15 185.723 Q2215.6 181.973 2221.44 181.973 Q2226.67 181.973 2229.7 185.353 Q2232.76 188.709 2232.76 194.496 M2228.5 193.246 Q2228.45 189.751 2226.53 187.668 Q2224.63 185.584 2221.48 185.584 Q2217.92 185.584 2215.77 187.598 Q2213.64 189.612 2213.31 193.27 L2228.5 193.246 Z" fill="#000000" fill-rule="evenodd" fill-opacity="1" /><circle clip-path="url(#clip560)" cx="1626.28" cy="251.724" r="23" fill="#e26f46" fill-rule="evenodd" fill-opacity="1" stroke="#000000" stroke-opacity="1" stroke-width="5.12"/>
<path clip-path="url(#clip560)" d="M 0 0 M1710.28 234.444 L1739.52 234.444 L1739.52 238.379 L1727.25 238.379 L1727.25 269.004 L1722.55 269.004 L1722.55 238.379 L1710.28 238.379 L1710.28 234.444 Z" fill="#000000" fill-rule="evenodd" fill-opacity="1" /><path clip-path="url(#clip560)" d="M 0 0 M1752.04 247.06 Q1751.32 246.643 1750.47 246.458 Q1749.63 246.25 1748.61 246.25 Q1745 246.25 1743.06 248.611 Q1741.14 250.949 1741.14 255.347 L1741.14 269.004 L1736.86 269.004 L1736.86 243.078 L1741.14 243.078 L1741.14 247.106 Q1742.48 244.745 1744.63 243.611 Q1746.79 242.453 1749.86 242.453 Q1750.3 242.453 1750.84 242.523 Q1751.37 242.569 1752.02 242.685 L1752.04 247.06 Z" fill="#000000" fill-rule="evenodd" fill-opacity="1" /><path clip-path="url(#clip560)" d="M 0 0 M1756.07 258.773 L1756.07 243.078 L1760.33 243.078 L1760.33 258.611 Q1760.33 262.291 1761.76 264.143 Q1763.2 265.972 1766.07 265.972 Q1769.52 265.972 1771.51 263.773 Q1773.52 261.574 1773.52 257.777 L1773.52 243.078 L1777.78 243.078 L1777.78 269.004 L1773.52 269.004 L1773.52 265.023 Q1771.97 267.384 1769.91 268.541 Q1767.87 269.675 1765.17 269.675 Q1760.7 269.675 1758.38 266.898 Q1756.07 264.12 1756.07 258.773 M1766.79 242.453 L1766.79 242.453 Z" fill="#000000" fill-rule="evenodd" fill-opacity="1" /><path clip-path="url(#clip560)" d="M 0 0 M1804.42 254.976 L1804.42 257.06 L1784.84 257.06 Q1785.12 261.458 1787.48 263.773 Q1789.86 266.064 1794.1 266.064 Q1796.55 266.064 1798.85 265.462 Q1801.16 264.861 1803.43 263.657 L1803.43 267.685 Q1801.14 268.657 1798.73 269.166 Q1796.32 269.675 1793.85 269.675 Q1787.64 269.675 1784.01 266.064 Q1780.4 262.453 1780.4 256.296 Q1780.4 249.93 1783.82 246.203 Q1787.27 242.453 1793.11 242.453 Q1798.34 242.453 1801.37 245.833 Q1804.42 249.189 1804.42 254.976 M1800.17 253.726 Q1800.12 250.231 1798.2 248.148 Q1796.3 246.064 1793.15 246.064 Q1789.59 246.064 1787.43 248.078 Q1785.3 250.092 1784.98 253.75 L1800.17 253.726 Z" fill="#000000" fill-rule="evenodd" fill-opacity="1" /><path clip-path="url(#clip560)" d="M 0 0 M1828.08 265.115 L1828.08 278.865 L1823.8 278.865 L1823.8 243.078 L1828.08 243.078 L1828.08 247.013 Q1829.42 244.699 1831.46 243.588 Q1833.52 242.453 1836.37 242.453 Q1841.09 242.453 1844.03 246.203 Q1846.99 249.953 1846.99 256.064 Q1846.99 262.175 1844.03 265.925 Q1841.09 269.675 1836.37 269.675 Q1833.52 269.675 1831.46 268.564 Q1829.42 267.43 1828.08 265.115 M1842.57 256.064 Q1842.57 251.365 1840.63 248.703 Q1838.71 246.018 1835.33 246.018 Q1831.95 246.018 1830 248.703 Q1828.08 251.365 1828.08 256.064 Q1828.08 260.763 1830 263.449 Q1831.95 266.111 1835.33 266.111 Q1838.71 266.111 1840.63 263.449 Q1842.57 260.763 1842.57 256.064 Z" fill="#000000" fill-rule="evenodd" fill-opacity="1" /><path clip-path="url(#clip560)" d="M 0 0 M1861.51 246.064 Q1858.08 246.064 1856.09 248.75 Q1854.1 251.412 1854.1 256.064 Q1854.1 260.717 1856.07 263.402 Q1858.06 266.064 1861.51 266.064 Q1864.91 266.064 1866.9 263.379 Q1868.89 260.694 1868.89 256.064 Q1868.89 251.458 1866.9 248.773 Q1864.91 246.064 1861.51 246.064 M1861.51 242.453 Q1867.06 242.453 1870.23 246.064 Q1873.41 249.675 1873.41 256.064 Q1873.41 262.43 1870.23 266.064 Q1867.06 269.675 1861.51 269.675 Q1855.93 269.675 1852.76 266.064 Q1849.61 262.43 1849.61 256.064 Q1849.61 249.675 1852.76 246.064 Q1855.93 242.453 1861.51 242.453 Z" fill="#000000" fill-rule="evenodd" fill-opacity="1" /><path clip-path="url(#clip560)" d="M 0 0 M1894.4 243.842 L1894.4 247.87 Q1892.6 246.944 1890.65 246.481 Q1888.71 246.018 1886.62 246.018 Q1883.45 246.018 1881.86 246.99 Q1880.28 247.963 1880.28 249.907 Q1880.28 251.388 1881.42 252.245 Q1882.55 253.078 1885.98 253.842 L1887.43 254.166 Q1891.97 255.138 1893.87 256.921 Q1895.79 258.68 1895.79 261.851 Q1895.79 265.462 1892.92 267.569 Q1890.07 269.675 1885.07 269.675 Q1882.99 269.675 1880.72 269.259 Q1878.48 268.865 1875.98 268.055 L1875.98 263.657 Q1878.34 264.884 1880.63 265.509 Q1882.92 266.111 1885.17 266.111 Q1888.17 266.111 1889.79 265.092 Q1891.42 264.05 1891.42 262.175 Q1891.42 260.439 1890.23 259.513 Q1889.08 258.587 1885.12 257.731 L1883.64 257.384 Q1879.68 256.55 1877.92 254.838 Q1876.16 253.101 1876.16 250.092 Q1876.16 246.435 1878.75 244.444 Q1881.35 242.453 1886.11 242.453 Q1888.48 242.453 1890.56 242.801 Q1892.64 243.148 1894.4 243.842 Z" fill="#000000" fill-rule="evenodd" fill-opacity="1" /><path clip-path="url(#clip560)" d="M 0 0 M1900.26 243.078 L1904.52 243.078 L1904.52 269.004 L1900.26 269.004 L1900.26 243.078 M1900.26 232.986 L1904.52 232.986 L1904.52 238.379 L1900.26 238.379 L1900.26 232.986 Z" fill="#000000" fill-rule="evenodd" fill-opacity="1" /><path clip-path="url(#clip560)" d="M 0 0 M1913.2 235.717 L1913.2 243.078 L1921.97 243.078 L1921.97 246.388 L1913.2 246.388 L1913.2 260.462 Q1913.2 263.634 1914.05 264.537 Q1914.93 265.439 1917.6 265.439 L1921.97 265.439 L1921.97 269.004 L1917.6 269.004 Q1912.67 269.004 1910.79 267.175 Q1908.92 265.324 1908.92 260.462 L1908.92 246.388 L1905.79 246.388 L1905.79 243.078 L1908.92 243.078 L1908.92 235.717 L1913.2 235.717 Z" fill="#000000" fill-rule="evenodd" fill-opacity="1" /><path clip-path="url(#clip560)" d="M 0 0 M1926.44 243.078 L1930.7 243.078 L1930.7 269.004 L1926.44 269.004 L1926.44 243.078 M1926.44 232.986 L1930.7 232.986 L1930.7 238.379 L1926.44 238.379 L1926.44 232.986 Z" fill="#000000" fill-rule="evenodd" fill-opacity="1" /><path clip-path="url(#clip560)" d="M 0 0 M1945.21 246.064 Q1941.79 246.064 1939.79 248.75 Q1937.8 251.412 1937.8 256.064 Q1937.8 260.717 1939.77 263.402 Q1941.76 266.064 1945.21 266.064 Q1948.61 266.064 1950.6 263.379 Q1952.6 260.694 1952.6 256.064 Q1952.6 251.458 1950.6 248.773 Q1948.61 246.064 1945.21 246.064 M1945.21 242.453 Q1950.77 242.453 1953.94 246.064 Q1957.11 249.675 1957.11 256.064 Q1957.11 262.43 1953.94 266.064 Q1950.77 269.675 1945.21 269.675 Q1939.63 269.675 1936.46 266.064 Q1933.31 262.43 1933.31 256.064 Q1933.31 249.675 1936.46 246.064 Q1939.63 242.453 1945.21 242.453 Z" fill="#000000" fill-rule="evenodd" fill-opacity="1" /><path clip-path="url(#clip560)" d="M 0 0 M1983.13 253.356 L1983.13 269.004 L1978.87 269.004 L1978.87 253.495 Q1978.87 249.814 1977.43 247.986 Q1976 246.157 1973.13 246.157 Q1969.68 246.157 1967.69 248.356 Q1965.7 250.555 1965.7 254.351 L1965.7 269.004 L1961.41 269.004 L1961.41 243.078 L1965.7 243.078 L1965.7 247.106 Q1967.22 244.768 1969.29 243.611 Q1971.37 242.453 1974.08 242.453 Q1978.54 242.453 1980.84 245.231 Q1983.13 247.986 1983.13 253.356 Z" fill="#000000" fill-rule="evenodd" fill-opacity="1" /><path clip-path="url(#clip560)" d="M 0 0 M2004.12 243.842 L2004.12 247.87 Q2002.32 246.944 2000.37 246.481 Q1998.43 246.018 1996.35 246.018 Q1993.17 246.018 1991.58 246.99 Q1990 247.963 1990 249.907 Q1990 251.388 1991.14 252.245 Q1992.27 253.078 1995.7 253.842 L1997.16 254.166 Q2001.69 255.138 2003.59 256.921 Q2005.51 258.68 2005.51 261.851 Q2005.51 265.462 2002.64 267.569 Q1999.79 269.675 1994.79 269.675 Q1992.71 269.675 1990.44 269.259 Q1988.2 268.865 1985.7 268.055 L1985.7 263.657 Q1988.06 264.884 1990.35 265.509 Q1992.64 266.111 1994.89 266.111 Q1997.9 266.111 1999.52 265.092 Q2001.14 264.05 2001.14 262.175 Q2001.14 260.439 1999.96 259.513 Q1998.8 258.587 1994.84 257.731 L1993.36 257.384 Q1989.4 256.55 1987.64 254.838 Q1985.88 253.101 1985.88 250.092 Q1985.88 246.435 1988.47 244.444 Q1991.07 242.453 1995.84 242.453 Q1998.2 242.453 2000.28 242.801 Q2002.36 243.148 2004.12 243.842 Z" fill="#000000" fill-rule="evenodd" fill-opacity="1" /><circle clip-path="url(#clip560)" cx="1626.28" cy="312.204" r="23" fill="#3da44d" fill-rule="evenodd" fill-opacity="1" stroke="#000000" stroke-opacity="1" stroke-width="5.12"/>
<path clip-path="url(#clip560)" d="M 0 0 M1710.28 294.924 L1717.25 294.924 L1726.07 318.442 L1734.93 294.924 L1741.9 294.924 L1741.9 329.484 L1737.34 329.484 L1737.34 299.137 L1728.43 322.841 L1723.73 322.841 L1714.82 299.137 L1714.82 329.484 L1710.28 329.484 L1710.28 294.924 Z" fill="#000000" fill-rule="evenodd" fill-opacity="1" /><path clip-path="url(#clip560)" d="M 0 0 M1768.55 315.456 L1768.55 317.54 L1748.96 317.54 Q1749.24 321.938 1751.6 324.253 Q1753.99 326.544 1758.22 326.544 Q1760.68 326.544 1762.97 325.942 Q1765.28 325.341 1767.55 324.137 L1767.55 328.165 Q1765.26 329.137 1762.85 329.646 Q1760.44 330.155 1757.97 330.155 Q1751.76 330.155 1748.13 326.544 Q1744.52 322.933 1744.52 316.776 Q1744.52 310.41 1747.94 306.683 Q1751.39 302.933 1757.23 302.933 Q1762.46 302.933 1765.49 306.313 Q1768.55 309.669 1768.55 315.456 M1764.29 314.206 Q1764.24 310.711 1762.32 308.628 Q1760.42 306.544 1757.27 306.544 Q1753.71 306.544 1751.55 308.558 Q1749.43 310.572 1749.1 314.23 L1764.29 314.206 Z" fill="#000000" fill-rule="evenodd" fill-opacity="1" /><path clip-path="url(#clip560)" d="M 0 0 M1784.8 316.452 Q1779.63 316.452 1777.64 317.632 Q1775.65 318.813 1775.65 321.66 Q1775.65 323.929 1777.13 325.271 Q1778.64 326.591 1781.21 326.591 Q1784.75 326.591 1786.88 324.091 Q1789.03 321.567 1789.03 317.401 L1789.03 316.452 L1784.8 316.452 M1793.29 314.693 L1793.29 329.484 L1789.03 329.484 L1789.03 325.549 Q1787.57 327.91 1785.4 329.044 Q1783.22 330.155 1780.07 330.155 Q1776.09 330.155 1773.73 327.933 Q1771.39 325.688 1771.39 321.938 Q1771.39 317.563 1774.31 315.341 Q1777.25 313.118 1783.06 313.118 L1789.03 313.118 L1789.03 312.702 Q1789.03 309.762 1787.09 308.165 Q1785.17 306.544 1781.67 306.544 Q1779.45 306.544 1777.34 307.077 Q1775.24 307.609 1773.29 308.674 L1773.29 304.739 Q1775.63 303.836 1777.83 303.396 Q1780.03 302.933 1782.11 302.933 Q1787.74 302.933 1790.51 305.85 Q1793.29 308.767 1793.29 314.693 Z" fill="#000000" fill-rule="evenodd" fill-opacity="1" /><path clip-path="url(#clip560)" d="M 0 0 M1814.29 304.322 L1814.29 308.35 Q1812.48 307.424 1810.54 306.961 Q1808.59 306.498 1806.51 306.498 Q1803.34 306.498 1801.74 307.47 Q1800.17 308.443 1800.17 310.387 Q1800.17 311.868 1801.3 312.725 Q1802.43 313.558 1805.86 314.322 L1807.32 314.646 Q1811.86 315.618 1813.75 317.401 Q1815.67 319.16 1815.67 322.331 Q1815.67 325.942 1812.8 328.049 Q1809.96 330.155 1804.96 330.155 Q1802.87 330.155 1800.61 329.739 Q1798.36 329.345 1795.86 328.535 L1795.86 324.137 Q1798.22 325.364 1800.51 325.989 Q1802.8 326.591 1805.05 326.591 Q1808.06 326.591 1809.68 325.572 Q1811.3 324.53 1811.3 322.655 Q1811.3 320.919 1810.12 319.993 Q1808.96 319.067 1805 318.211 L1803.52 317.864 Q1799.56 317.03 1797.8 315.318 Q1796.05 313.581 1796.05 310.572 Q1796.05 306.915 1798.64 304.924 Q1801.23 302.933 1806 302.933 Q1808.36 302.933 1810.44 303.281 Q1812.53 303.628 1814.29 304.322 Z" fill="#000000" fill-rule="evenodd" fill-opacity="1" /><path clip-path="url(#clip560)" d="M 0 0 M1819.7 319.253 L1819.7 303.558 L1823.96 303.558 L1823.96 319.091 Q1823.96 322.771 1825.4 324.623 Q1826.83 326.452 1829.7 326.452 Q1833.15 326.452 1835.14 324.253 Q1837.16 322.054 1837.16 318.257 L1837.16 303.558 L1841.42 303.558 L1841.42 329.484 L1837.16 329.484 L1837.16 325.503 Q1835.61 327.864 1833.55 329.021 Q1831.51 330.155 1828.8 330.155 Q1824.33 330.155 1822.02 327.378 Q1819.7 324.6 1819.7 319.253 M1830.42 302.933 L1830.42 302.933 Z" fill="#000000" fill-rule="evenodd" fill-opacity="1" /><path clip-path="url(#clip560)" d="M 0 0 M1860.91 307.54 Q1860.19 307.123 1859.33 306.938 Q1858.5 306.73 1857.48 306.73 Q1853.87 306.73 1851.92 309.091 Q1850 311.429 1850 315.827 L1850 329.484 L1845.72 329.484 L1845.72 303.558 L1850 303.558 L1850 307.586 Q1851.35 305.225 1853.5 304.091 Q1855.65 302.933 1858.73 302.933 Q1859.17 302.933 1859.7 303.003 Q1860.23 303.049 1860.88 303.165 L1860.91 307.54 Z" fill="#000000" fill-rule="evenodd" fill-opacity="1" /><path clip-path="url(#clip560)" d="M 0 0 M1886.51 315.456 L1886.51 317.54 L1866.92 317.54 Q1867.2 321.938 1869.56 324.253 Q1871.95 326.544 1876.18 326.544 Q1878.64 326.544 1880.93 325.942 Q1883.24 325.341 1885.51 324.137 L1885.51 328.165 Q1883.22 329.137 1880.81 329.646 Q1878.41 330.155 1875.93 330.155 Q1869.73 330.155 1866.09 326.544 Q1862.48 322.933 1862.48 316.776 Q1862.48 310.41 1865.91 306.683 Q1869.36 302.933 1875.19 302.933 Q1880.42 302.933 1883.45 306.313 Q1886.51 309.669 1886.51 315.456 M1882.25 314.206 Q1882.2 310.711 1880.28 308.628 Q1878.38 306.544 1875.23 306.544 Q1871.67 306.544 1869.52 308.558 Q1867.39 310.572 1867.06 314.23 L1882.25 314.206 Z" fill="#000000" fill-rule="evenodd" fill-opacity="1" /><path clip-path="url(#clip560)" d="M 0 0 M1908.04 307.493 L1908.04 293.466 L1912.29 293.466 L1912.29 329.484 L1908.04 329.484 L1908.04 325.595 Q1906.69 327.91 1904.63 329.044 Q1902.6 330.155 1899.73 330.155 Q1895.03 330.155 1892.06 326.405 Q1889.12 322.655 1889.12 316.544 Q1889.12 310.433 1892.06 306.683 Q1895.03 302.933 1899.73 302.933 Q1902.6 302.933 1904.63 304.068 Q1906.69 305.179 1908.04 307.493 M1893.52 316.544 Q1893.52 321.243 1895.44 323.929 Q1897.39 326.591 1900.77 326.591 Q1904.15 326.591 1906.09 323.929 Q1908.04 321.243 1908.04 316.544 Q1908.04 311.845 1906.09 309.183 Q1904.15 306.498 1900.77 306.498 Q1897.39 306.498 1895.44 309.183 Q1893.52 311.845 1893.52 316.544 Z" fill="#000000" fill-rule="evenodd" fill-opacity="1" /><path clip-path="url(#clip560)" d="M 0 0 M1935.95 325.595 L1935.95 339.345 L1931.67 339.345 L1931.67 303.558 L1935.95 303.558 L1935.95 307.493 Q1937.29 305.179 1939.33 304.068 Q1941.39 302.933 1944.24 302.933 Q1948.96 302.933 1951.9 306.683 Q1954.86 310.433 1954.86 316.544 Q1954.86 322.655 1951.9 326.405 Q1948.96 330.155 1944.24 330.155 Q1941.39 330.155 1939.33 329.044 Q1937.29 327.91 1935.95 325.595 M1950.44 316.544 Q1950.44 311.845 1948.5 309.183 Q1946.58 306.498 1943.2 306.498 Q1939.82 306.498 1937.87 309.183 Q1935.95 311.845 1935.95 316.544 Q1935.95 321.243 1937.87 323.929 Q1939.82 326.591 1943.2 326.591 Q1946.58 326.591 1948.5 323.929 Q1950.44 321.243 1950.44 316.544 Z" fill="#000000" fill-rule="evenodd" fill-opacity="1" /><path clip-path="url(#clip560)" d="M 0 0 M1969.38 306.544 Q1965.95 306.544 1963.96 309.23 Q1961.97 311.892 1961.97 316.544 Q1961.97 321.197 1963.94 323.882 Q1965.93 326.544 1969.38 326.544 Q1972.78 326.544 1974.77 323.859 Q1976.76 321.174 1976.76 316.544 Q1976.76 311.938 1974.77 309.253 Q1972.78 306.544 1969.38 306.544 M1969.38 302.933 Q1974.93 302.933 1978.1 306.544 Q1981.28 310.155 1981.28 316.544 Q1981.28 322.91 1978.1 326.544 Q1974.93 330.155 1969.38 330.155 Q1963.8 330.155 1960.63 326.544 Q1957.48 322.91 1957.48 316.544 Q1957.48 310.155 1960.63 306.544 Q1963.8 302.933 1969.38 302.933 Z" fill="#000000" fill-rule="evenodd" fill-opacity="1" /><path clip-path="url(#clip560)" d="M 0 0 M2002.27 304.322 L2002.27 308.35 Q2000.47 307.424 1998.52 306.961 Q1996.58 306.498 1994.49 306.498 Q1991.32 306.498 1989.72 307.47 Q1988.15 308.443 1988.15 310.387 Q1988.15 311.868 1989.28 312.725 Q1990.42 313.558 1993.85 314.322 L1995.3 314.646 Q1999.84 315.618 2001.74 317.401 Q2003.66 319.16 2003.66 322.331 Q2003.66 325.942 2000.79 328.049 Q1997.94 330.155 1992.94 330.155 Q1990.86 330.155 1988.59 329.739 Q1986.35 329.345 1983.85 328.535 L1983.85 324.137 Q1986.21 325.364 1988.5 325.989 Q1990.79 326.591 1993.03 326.591 Q1996.04 326.591 1997.66 325.572 Q1999.28 324.53 1999.28 322.655 Q1999.28 320.919 1998.1 319.993 Q1996.95 319.067 1992.99 318.211 L1991.51 317.864 Q1987.55 317.03 1985.79 315.318 Q1984.03 313.581 1984.03 310.572 Q1984.03 306.915 1986.62 304.924 Q1989.22 302.933 1993.98 302.933 Q1996.35 302.933 1998.43 303.281 Q2000.51 303.628 2002.27 304.322 Z" fill="#000000" fill-rule="evenodd" fill-opacity="1" /><path clip-path="url(#clip560)" d="M 0 0 M2008.13 303.558 L2012.39 303.558 L2012.39 329.484 L2008.13 329.484 L2008.13 303.558 M2008.13 293.466 L2012.39 293.466 L2012.39 298.859 L2008.13 298.859 L2008.13 293.466 Z" fill="#000000" fill-rule="evenodd" fill-opacity="1" /><path clip-path="url(#clip560)" d="M 0 0 M2021.07 296.197 L2021.07 303.558 L2029.84 303.558 L2029.84 306.868 L2021.07 306.868 L2021.07 320.942 Q2021.07 324.114 2021.92 325.017 Q2022.8 325.919 2025.47 325.919 L2029.84 325.919 L2029.84 329.484 L2025.47 329.484 Q2020.53 329.484 2018.66 327.655 Q2016.78 325.804 2016.78 320.942 L2016.78 306.868 L2013.66 306.868 L2013.66 303.558 L2016.78 303.558 L2016.78 296.197 L2021.07 296.197 Z" fill="#000000" fill-rule="evenodd" fill-opacity="1" /><path clip-path="url(#clip560)" d="M 0 0 M2034.31 303.558 L2038.57 303.558 L2038.57 329.484 L2034.31 329.484 L2034.31 303.558 M2034.31 293.466 L2038.57 293.466 L2038.57 298.859 L2034.31 298.859 L2034.31 293.466 Z" fill="#000000" fill-rule="evenodd" fill-opacity="1" /><path clip-path="url(#clip560)" d="M 0 0 M2053.08 306.544 Q2049.66 306.544 2047.66 309.23 Q2045.67 311.892 2045.67 316.544 Q2045.67 321.197 2047.64 323.882 Q2049.63 326.544 2053.08 326.544 Q2056.48 326.544 2058.47 323.859 Q2060.47 321.174 2060.47 316.544 Q2060.47 311.938 2058.47 309.253 Q2056.48 306.544 2053.08 306.544 M2053.08 302.933 Q2058.64 302.933 2061.81 306.544 Q2064.98 310.155 2064.98 316.544 Q2064.98 322.91 2061.81 326.544 Q2058.64 330.155 2053.08 330.155 Q2047.5 330.155 2044.33 326.544 Q2041.18 322.91 2041.18 316.544 Q2041.18 310.155 2044.33 306.544 Q2047.5 302.933 2053.08 302.933 Z" fill="#000000" fill-rule="evenodd" fill-opacity="1" /><path clip-path="url(#clip560)" d="M 0 0 M2091 313.836 L2091 329.484 L2086.74 329.484 L2086.74 313.975 Q2086.74 310.294 2085.3 308.466 Q2083.87 306.637 2081 306.637 Q2077.55 306.637 2075.56 308.836 Q2073.57 311.035 2073.57 314.831 L2073.57 329.484 L2069.28 329.484 L2069.28 303.558 L2073.57 303.558 L2073.57 307.586 Q2075.09 305.248 2077.15 304.091 Q2079.24 302.933 2081.95 302.933 Q2086.41 302.933 2088.71 305.711 Q2091 308.466 2091 313.836 Z" fill="#000000" fill-rule="evenodd" fill-opacity="1" /><path clip-path="url(#clip560)" d="M 0 0 M2111.99 304.322 L2111.99 308.35 Q2110.19 307.424 2108.24 306.961 Q2106.3 306.498 2104.21 306.498 Q2101.04 306.498 2099.45 307.47 Q2097.87 308.443 2097.87 310.387 Q2097.87 311.868 2099.01 312.725 Q2100.14 313.558 2103.57 314.322 L2105.03 314.646 Q2109.56 315.618 2111.46 317.401 Q2113.38 319.16 2113.38 322.331 Q2113.38 325.942 2110.51 328.049 Q2107.66 330.155 2102.66 330.155 Q2100.58 330.155 2098.31 329.739 Q2096.07 329.345 2093.57 328.535 L2093.57 324.137 Q2095.93 325.364 2098.22 325.989 Q2100.51 326.591 2102.76 326.591 Q2105.77 326.591 2107.39 325.572 Q2109.01 324.53 2109.01 322.655 Q2109.01 320.919 2107.83 319.993 Q2106.67 319.067 2102.71 318.211 L2101.23 317.864 Q2097.27 317.03 2095.51 315.318 Q2093.75 313.581 2093.75 310.572 Q2093.75 306.915 2096.34 304.924 Q2098.94 302.933 2103.71 302.933 Q2106.07 302.933 2108.15 303.281 Q2110.23 303.628 2111.99 304.322 Z" fill="#000000" fill-rule="evenodd" fill-opacity="1" /><line clip-path="url(#clip560)" x1="1626.28" y1="372.684" x2="1600.68" y2="347.084" style="stroke:#c271d2; stroke-width:3.2; stroke-opacity:1"/>
<line clip-path="url(#clip560)" x1="1626.28" y1="372.684" x2="1600.68" y2="398.284" style="stroke:#c271d2; stroke-width:3.2; stroke-opacity:1"/>
<line clip-path="url(#clip560)" x1="1626.28" y1="372.684" x2="1651.88" y2="398.284" style="stroke:#c271d2; stroke-width:3.2; stroke-opacity:1"/>
<line clip-path="url(#clip560)" x1="1626.28" y1="372.684" x2="1651.88" y2="347.084" style="stroke:#c271d2; stroke-width:3.2; stroke-opacity:1"/>
<path clip-path="url(#clip560)" d="M 0 0 M1710.28 355.404 L1732.13 355.404 L1732.13 359.339 L1714.96 359.339 L1714.96 369.571 L1731.42 369.571 L1731.42 373.506 L1714.96 373.506 L1714.96 386.029 L1732.55 386.029 L1732.55 389.964 L1710.28 389.964 L1710.28 355.404 Z" fill="#000000" fill-rule="evenodd" fill-opacity="1" /><path clip-path="url(#clip560)" d="M 0 0 M1753.55 364.802 L1753.55 368.83 Q1751.74 367.904 1749.8 367.441 Q1747.85 366.978 1745.77 366.978 Q1742.6 366.978 1741 367.95 Q1739.43 368.923 1739.43 370.867 Q1739.43 372.348 1740.56 373.205 Q1741.69 374.038 1745.12 374.802 L1746.58 375.126 Q1751.11 376.098 1753.01 377.881 Q1754.93 379.64 1754.93 382.811 Q1754.93 386.422 1752.06 388.529 Q1749.22 390.635 1744.22 390.635 Q1742.13 390.635 1739.87 390.219 Q1737.62 389.825 1735.12 389.015 L1735.12 384.617 Q1737.48 385.844 1739.77 386.469 Q1742.06 387.071 1744.31 387.071 Q1747.32 387.071 1748.94 386.052 Q1750.56 385.01 1750.56 383.135 Q1750.56 381.399 1749.38 380.473 Q1748.22 379.547 1744.26 378.691 L1742.78 378.344 Q1738.82 377.51 1737.06 375.798 Q1735.3 374.061 1735.3 371.052 Q1735.3 367.395 1737.9 365.404 Q1740.49 363.413 1745.26 363.413 Q1747.62 363.413 1749.7 363.761 Q1751.79 364.108 1753.55 364.802 Z" fill="#000000" fill-rule="evenodd" fill-opacity="1" /><path clip-path="url(#clip560)" d="M 0 0 M1763.61 356.677 L1763.61 364.038 L1772.39 364.038 L1772.39 367.348 L1763.61 367.348 L1763.61 381.422 Q1763.61 384.594 1764.47 385.497 Q1765.35 386.399 1768.01 386.399 L1772.39 386.399 L1772.39 389.964 L1768.01 389.964 Q1763.08 389.964 1761.21 388.135 Q1759.33 386.284 1759.33 381.422 L1759.33 367.348 L1756.21 367.348 L1756.21 364.038 L1759.33 364.038 L1759.33 356.677 L1763.61 356.677 Z" fill="#000000" fill-rule="evenodd" fill-opacity="1" /><path clip-path="url(#clip560)" d="M 0 0 M1777.46 384.084 L1782.34 384.084 L1782.34 389.964 L1777.46 389.964 L1777.46 384.084 Z" fill="#000000" fill-rule="evenodd" fill-opacity="1" /><path clip-path="url(#clip560)" d="M 0 0 M1822.78 356.538 L1822.78 361.099 Q1820.12 359.825 1817.76 359.2 Q1815.4 358.575 1813.2 358.575 Q1809.38 358.575 1807.3 360.057 Q1805.24 361.538 1805.24 364.27 Q1805.24 366.561 1806.6 367.742 Q1807.99 368.899 1811.83 369.617 L1814.66 370.196 Q1819.89 371.191 1822.36 373.714 Q1824.86 376.214 1824.86 380.427 Q1824.86 385.45 1821.48 388.043 Q1818.13 390.635 1811.62 390.635 Q1809.17 390.635 1806.39 390.08 Q1803.64 389.524 1800.67 388.436 L1800.67 383.622 Q1803.52 385.219 1806.25 386.029 Q1808.99 386.839 1811.62 386.839 Q1815.63 386.839 1817.8 385.265 Q1819.98 383.691 1819.98 380.774 Q1819.98 378.228 1818.41 376.793 Q1816.86 375.358 1813.29 374.64 L1810.44 374.085 Q1805.21 373.043 1802.87 370.821 Q1800.54 368.598 1800.54 364.64 Q1800.54 360.057 1803.75 357.418 Q1806.99 354.779 1812.67 354.779 Q1815.1 354.779 1817.62 355.219 Q1820.14 355.659 1822.78 356.538 Z" fill="#000000" fill-rule="evenodd" fill-opacity="1" /><path clip-path="url(#clip560)" d="M 0 0 M1839.38 367.024 Q1835.95 367.024 1833.96 369.71 Q1831.97 372.372 1831.97 377.024 Q1831.97 381.677 1833.94 384.362 Q1835.93 387.024 1839.38 387.024 Q1842.78 387.024 1844.77 384.339 Q1846.76 381.654 1846.76 377.024 Q1846.76 372.418 1844.77 369.733 Q1842.78 367.024 1839.38 367.024 M1839.38 363.413 Q1844.93 363.413 1848.11 367.024 Q1851.28 370.635 1851.28 377.024 Q1851.28 383.39 1848.11 387.024 Q1844.93 390.635 1839.38 390.635 Q1833.8 390.635 1830.63 387.024 Q1827.48 383.39 1827.48 377.024 Q1827.48 370.635 1830.63 367.024 Q1833.8 363.413 1839.38 363.413 Z" fill="#000000" fill-rule="evenodd" fill-opacity="1" /><path clip-path="url(#clip560)" d="M 0 0 M1855.3 379.733 L1855.3 364.038 L1859.56 364.038 L1859.56 379.571 Q1859.56 383.251 1861 385.103 Q1862.43 386.932 1865.3 386.932 Q1868.75 386.932 1870.74 384.733 Q1872.76 382.534 1872.76 378.737 L1872.76 364.038 L1877.02 364.038 L1877.02 389.964 L1872.76 389.964 L1872.76 385.983 Q1871.21 388.344 1869.15 389.501 Q1867.11 390.635 1864.4 390.635 Q1859.93 390.635 1857.62 387.858 Q1855.3 385.08 1855.3 379.733 M1866.02 363.413 L1866.02 363.413 Z" fill="#000000" fill-rule="evenodd" fill-opacity="1" /><path clip-path="url(#clip560)" d="M 0 0 M1896.51 368.02 Q1895.79 367.603 1894.93 367.418 Q1894.1 367.21 1893.08 367.21 Q1889.47 367.21 1887.53 369.571 Q1885.6 371.909 1885.6 376.307 L1885.6 389.964 L1881.32 389.964 L1881.32 364.038 L1885.6 364.038 L1885.6 368.066 Q1886.95 365.705 1889.1 364.571 Q1891.25 363.413 1894.33 363.413 Q1894.77 363.413 1895.3 363.483 Q1895.84 363.529 1896.48 363.645 L1896.51 368.02 Z" fill="#000000" fill-rule="evenodd" fill-opacity="1" /><path clip-path="url(#clip560)" d="M 0 0 M1918.59 365.034 L1918.59 369.015 Q1916.79 368.02 1914.96 367.534 Q1913.15 367.024 1911.3 367.024 Q1907.16 367.024 1904.86 369.663 Q1902.57 372.279 1902.57 377.024 Q1902.57 381.77 1904.86 384.409 Q1907.16 387.024 1911.3 387.024 Q1913.15 387.024 1914.96 386.538 Q1916.79 386.029 1918.59 385.034 L1918.59 388.969 Q1916.81 389.802 1914.89 390.219 Q1912.99 390.635 1910.84 390.635 Q1904.98 390.635 1901.53 386.955 Q1898.08 383.274 1898.08 377.024 Q1898.08 370.682 1901.55 367.048 Q1905.05 363.413 1911.11 363.413 Q1913.08 363.413 1914.96 363.83 Q1916.83 364.223 1918.59 365.034 Z" fill="#000000" fill-rule="evenodd" fill-opacity="1" /><path clip-path="url(#clip560)" d="M 0 0 M1945.23 375.936 L1945.23 378.02 L1925.65 378.02 Q1925.93 382.418 1928.29 384.733 Q1930.67 387.024 1934.91 387.024 Q1937.36 387.024 1939.66 386.422 Q1941.97 385.821 1944.24 384.617 L1944.24 388.645 Q1941.95 389.617 1939.54 390.126 Q1937.13 390.635 1934.66 390.635 Q1928.45 390.635 1924.82 387.024 Q1921.21 383.413 1921.21 377.256 Q1921.21 370.89 1924.63 367.163 Q1928.08 363.413 1933.91 363.413 Q1939.15 363.413 1942.18 366.793 Q1945.23 370.149 1945.23 375.936 M1940.98 374.686 Q1940.93 371.191 1939.01 369.108 Q1937.11 367.024 1933.96 367.024 Q1930.4 367.024 1928.24 369.038 Q1926.11 371.052 1925.79 374.71 L1940.98 374.686 Z" fill="#000000" fill-rule="evenodd" fill-opacity="1" /><line clip-path="url(#clip560)" x1="1626.28" y1="433.164" x2="1600.68" y2="407.564" style="stroke:#ac8d18; stroke-width:3.2; stroke-opacity:1"/>
<line clip-path="url(#clip560)" x1="1626.28" y1="433.164" x2="1600.68" y2="458.764" style="stroke:#ac8d18; stroke-width:3.2; stroke-opacity:1"/>
<line clip-path="url(#clip560)" x1="1626.28" y1="433.164" x2="1651.88" y2="458.764" style="stroke:#ac8d18; stroke-width:3.2; stroke-opacity:1"/>
<line clip-path="url(#clip560)" x1="1626.28" y1="433.164" x2="1651.88" y2="407.564" style="stroke:#ac8d18; stroke-width:3.2; stroke-opacity:1"/>
<path clip-path="url(#clip560)" d="M 0 0 M1710.28 415.884 L1739.52 415.884 L1739.52 419.819 L1727.25 419.819 L1727.25 450.444 L1722.55 450.444 L1722.55 419.819 L1710.28 419.819 L1710.28 415.884 Z" fill="#000000" fill-rule="evenodd" fill-opacity="1" /><path clip-path="url(#clip560)" d="M 0 0 M1752.04 428.5 Q1751.32 428.083 1750.47 427.898 Q1749.63 427.69 1748.61 427.69 Q1745 427.69 1743.06 430.051 Q1741.14 432.389 1741.14 436.787 L1741.14 450.444 L1736.86 450.444 L1736.86 424.518 L1741.14 424.518 L1741.14 428.546 Q1742.48 426.185 1744.63 425.051 Q1746.79 423.893 1749.86 423.893 Q1750.3 423.893 1750.84 423.963 Q1751.37 424.009 1752.02 424.125 L1752.04 428.5 Z" fill="#000000" fill-rule="evenodd" fill-opacity="1" /><path clip-path="url(#clip560)" d="M 0 0 M1756.07 440.213 L1756.07 424.518 L1760.33 424.518 L1760.33 440.051 Q1760.33 443.731 1761.76 445.583 Q1763.2 447.412 1766.07 447.412 Q1769.52 447.412 1771.51 445.213 Q1773.52 443.014 1773.52 439.217 L1773.52 424.518 L1777.78 424.518 L1777.78 450.444 L1773.52 450.444 L1773.52 446.463 Q1771.97 448.824 1769.91 449.981 Q1767.87 451.115 1765.17 451.115 Q1760.7 451.115 1758.38 448.338 Q1756.07 445.56 1756.07 440.213 M1766.79 423.893 L1766.79 423.893 Z" fill="#000000" fill-rule="evenodd" fill-opacity="1" /><path clip-path="url(#clip560)" d="M 0 0 M1804.42 436.416 L1804.42 438.5 L1784.84 438.5 Q1785.12 442.898 1787.48 445.213 Q1789.86 447.504 1794.1 447.504 Q1796.55 447.504 1798.85 446.902 Q1801.16 446.301 1803.43 445.097 L1803.43 449.125 Q1801.14 450.097 1798.73 450.606 Q1796.32 451.115 1793.85 451.115 Q1787.64 451.115 1784.01 447.504 Q1780.4 443.893 1780.4 437.736 Q1780.4 431.37 1783.82 427.643 Q1787.27 423.893 1793.11 423.893 Q1798.34 423.893 1801.37 427.273 Q1804.42 430.629 1804.42 436.416 M1800.17 435.166 Q1800.12 431.671 1798.2 429.588 Q1796.3 427.504 1793.15 427.504 Q1789.59 427.504 1787.43 429.518 Q1785.3 431.532 1784.98 435.19 L1800.17 435.166 Z" fill="#000000" fill-rule="evenodd" fill-opacity="1" /><path clip-path="url(#clip560)" d="M 0 0 M1844.86 417.018 L1844.86 421.579 Q1842.2 420.305 1839.84 419.68 Q1837.48 419.055 1835.28 419.055 Q1831.46 419.055 1829.38 420.537 Q1827.32 422.018 1827.32 424.75 Q1827.32 427.041 1828.68 428.222 Q1830.07 429.379 1833.92 430.097 L1836.74 430.676 Q1841.97 431.671 1844.45 434.194 Q1846.95 436.694 1846.95 440.907 Q1846.95 445.93 1843.57 448.523 Q1840.21 451.115 1833.71 451.115 Q1831.25 451.115 1828.48 450.56 Q1825.72 450.004 1822.76 448.916 L1822.76 444.102 Q1825.61 445.699 1828.34 446.509 Q1831.07 447.319 1833.71 447.319 Q1837.71 447.319 1839.89 445.745 Q1842.06 444.171 1842.06 441.254 Q1842.06 438.708 1840.49 437.273 Q1838.94 435.838 1835.37 435.12 L1832.53 434.565 Q1827.3 433.523 1824.96 431.301 Q1822.62 429.078 1822.62 425.12 Q1822.62 420.537 1825.84 417.898 Q1829.08 415.259 1834.75 415.259 Q1837.18 415.259 1839.7 415.699 Q1842.23 416.139 1844.86 417.018 Z" fill="#000000" fill-rule="evenodd" fill-opacity="1" /><path clip-path="url(#clip560)" d="M 0 0 M1861.46 427.504 Q1858.04 427.504 1856.04 430.19 Q1854.05 432.852 1854.05 437.504 Q1854.05 442.157 1856.02 444.842 Q1858.01 447.504 1861.46 447.504 Q1864.86 447.504 1866.86 444.819 Q1868.85 442.134 1868.85 437.504 Q1868.85 432.898 1866.86 430.213 Q1864.86 427.504 1861.46 427.504 M1861.46 423.893 Q1867.02 423.893 1870.19 427.504 Q1873.36 431.115 1873.36 437.504 Q1873.36 443.87 1870.19 447.504 Q1867.02 451.115 1861.46 451.115 Q1855.88 451.115 1852.71 447.504 Q1849.56 443.87 1849.56 437.504 Q1849.56 431.115 1852.71 427.504 Q1855.88 423.893 1861.46 423.893 Z" fill="#000000" fill-rule="evenodd" fill-opacity="1" /><path clip-path="url(#clip560)" d="M 0 0 M1877.39 440.213 L1877.39 424.518 L1881.65 424.518 L1881.65 440.051 Q1881.65 443.731 1883.08 445.583 Q1884.52 447.412 1887.39 447.412 Q1890.84 447.412 1892.83 445.213 Q1894.84 443.014 1894.84 439.217 L1894.84 424.518 L1899.1 424.518 L1899.1 450.444 L1894.84 450.444 L1894.84 446.463 Q1893.29 448.824 1891.23 449.981 Q1889.19 451.115 1886.48 451.115 Q1882.02 451.115 1879.7 448.338 Q1877.39 445.56 1877.39 440.213 M1888.1 423.893 L1888.1 423.893 Z" fill="#000000" fill-rule="evenodd" fill-opacity="1" /><path clip-path="url(#clip560)" d="M 0 0 M1918.59 428.5 Q1917.87 428.083 1917.02 427.898 Q1916.18 427.69 1915.17 427.69 Q1911.55 427.69 1909.61 430.051 Q1907.69 432.389 1907.69 436.787 L1907.69 450.444 L1903.41 450.444 L1903.41 424.518 L1907.69 424.518 L1907.69 428.546 Q1909.03 426.185 1911.18 425.051 Q1913.34 423.893 1916.42 423.893 Q1916.85 423.893 1917.39 423.963 Q1917.92 424.009 1918.57 424.125 L1918.59 428.5 Z" fill="#000000" fill-rule="evenodd" fill-opacity="1" /><path clip-path="url(#clip560)" d="M 0 0 M1940.67 425.514 L1940.67 429.495 Q1938.87 428.5 1937.04 428.014 Q1935.23 427.504 1933.38 427.504 Q1929.24 427.504 1926.95 430.143 Q1924.66 432.759 1924.66 437.504 Q1924.66 442.25 1926.95 444.889 Q1929.24 447.504 1933.38 447.504 Q1935.23 447.504 1937.04 447.018 Q1938.87 446.509 1940.67 445.514 L1940.67 449.449 Q1938.89 450.282 1936.97 450.699 Q1935.07 451.115 1932.92 451.115 Q1927.06 451.115 1923.61 447.435 Q1920.16 443.754 1920.16 437.504 Q1920.16 431.162 1923.64 427.528 Q1927.13 423.893 1933.2 423.893 Q1935.16 423.893 1937.04 424.31 Q1938.91 424.703 1940.67 425.514 Z" fill="#000000" fill-rule="evenodd" fill-opacity="1" /><path clip-path="url(#clip560)" d="M 0 0 M1967.32 436.416 L1967.32 438.5 L1947.73 438.5 Q1948.01 442.898 1950.37 445.213 Q1952.76 447.504 1956.99 447.504 Q1959.45 447.504 1961.74 446.902 Q1964.05 446.301 1966.32 445.097 L1966.32 449.125 Q1964.03 450.097 1961.62 450.606 Q1959.22 451.115 1956.74 451.115 Q1950.54 451.115 1946.9 447.504 Q1943.29 443.893 1943.29 437.736 Q1943.29 431.37 1946.72 427.643 Q1950.16 423.893 1956 423.893 Q1961.23 423.893 1964.26 427.273 Q1967.32 430.629 1967.32 436.416 M1963.06 435.166 Q1963.01 431.671 1961.09 429.588 Q1959.19 427.504 1956.04 427.504 Q1952.48 427.504 1950.33 429.518 Q1948.2 431.532 1947.87 435.19 L1963.06 435.166 Z" fill="#000000" fill-rule="evenodd" fill-opacity="1" /></svg>
