<?xml version="1.0" encoding="utf-8"?>
<svg xmlns="http://www.w3.org/2000/svg" xmlns:xlink="http://www.w3.org/1999/xlink" width="600" height="400" viewBox="0 0 2400 1600">
<defs>
  <clipPath id="clip300">
    <rect x="0" y="0" width="2400" height="1600"/>
  </clipPath>
</defs>
<path clip-path="url(#clip300)" d="
M0 1600 L2400 1600 L2400 0 L0 0  Z
  " fill="#ffffff" fill-rule="evenodd" fill-opacity="1"/>
<defs>
  <clipPath id="clip301">
    <rect x="480" y="0" width="1681" height="1600"/>
  </clipPath>
</defs>
<path clip-path="url(#clip300)" d="
M162.455 1486.45 L2352.76 1486.45 L2352.76 47.2441 L162.455 47.2441  Z
  " fill="#ffffff" fill-rule="evenodd" fill-opacity="1"/>
<defs>
  <clipPath id="clip302">
    <rect x="162" y="47" width="2191" height="1440"/>
  </clipPath>
</defs>
<polyline clip-path="url(#clip302)" style="stroke:#000000; stroke-width:2; stroke-opacity:0.1; fill:none" points="
  274.137,1486.45 274.137,47.2441 
  "/>
<polyline clip-path="url(#clip302)" style="stroke:#000000; stroke-width:2; stroke-opacity:0.1; fill:none" points="
  816.773,1486.45 816.773,47.2441 
  "/>
<polyline clip-path="url(#clip302)" style="stroke:#000000; stroke-width:2; stroke-opacity:0.1; fill:none" points="
  1359.41,1486.45 1359.41,47.2441 
  "/>
<polyline clip-path="url(#clip302)" style="stroke:#000000; stroke-width:2; stroke-opacity:0.1; fill:none" points="
  1902.05,1486.45 1902.05,47.2441 
  "/>
<polyline clip-path="url(#clip302)" style="stroke:#000000; stroke-width:2; stroke-opacity:0.1; fill:none" points="
  162.455,1184.79 2352.76,1184.79 
  "/>
<polyline clip-path="url(#clip302)" style="stroke:#000000; stroke-width:2; stroke-opacity:0.1; fill:none" points="
  162.455,881.918 2352.76,881.918 
  "/>
<polyline clip-path="url(#clip302)" style="stroke:#000000; stroke-width:2; stroke-opacity:0.1; fill:none" points="
  162.455,579.043 2352.76,579.043 
  "/>
<polyline clip-path="url(#clip302)" style="stroke:#000000; stroke-width:2; stroke-opacity:0.1; fill:none" points="
  162.455,276.167 2352.76,276.167 
  "/>
<polyline clip-path="url(#clip300)" style="stroke:#000000; stroke-width:4; stroke-opacity:1; fill:none" points="
  162.455,1486.45 2352.76,1486.45 
  "/>
<polyline clip-path="url(#clip300)" style="stroke:#000000; stroke-width:4; stroke-opacity:1; fill:none" points="
  162.455,1486.45 162.455,47.2441 
  "/>
<polyline clip-path="url(#clip300)" style="stroke:#000000; stroke-width:4; stroke-opacity:1; fill:none" points="
  274.137,1486.45 274.137,1469.18 
  "/>
<polyline clip-path="url(#clip300)" style="stroke:#000000; stroke-width:4; stroke-opacity:1; fill:none" points="
  816.773,1486.45 816.773,1469.18 
  "/>
<polyline clip-path="url(#clip300)" style="stroke:#000000; stroke-width:4; stroke-opacity:1; fill:none" points="
  1359.41,1486.45 1359.41,1469.18 
  "/>
<polyline clip-path="url(#clip300)" style="stroke:#000000; stroke-width:4; stroke-opacity:1; fill:none" points="
  1902.05,1486.45 1902.05,1469.18 
  "/>
<polyline clip-path="url(#clip300)" style="stroke:#000000; stroke-width:4; stroke-opacity:1; fill:none" points="
  162.455,1184.79 188.738,1184.79 
  "/>
<polyline clip-path="url(#clip300)" style="stroke:#000000; stroke-width:4; stroke-opacity:1; fill:none" points="
  162.455,881.918 188.738,881.918 
  "/>
<polyline clip-path="url(#clip300)" style="stroke:#000000; stroke-width:4; stroke-opacity:1; fill:none" points="
  162.455,579.043 188.738,579.043 
  "/>
<polyline clip-path="url(#clip300)" style="stroke:#000000; stroke-width:4; stroke-opacity:1; fill:none" points="
  162.455,276.167 188.738,276.167 
  "/>
<path clip-path="url(#clip300)" d="M 0 0 M255.191 1525.04 L267.667 1525.04 L267.667 1528.83 L255.191 1528.83 L255.191 1525.04 Z" fill="#000000" fill-rule="evenodd" fill-opacity="1" /><path clip-path="url(#clip300)" d="M 0 0 M276.764 1535.98 L293.084 1535.98 L293.084 1539.92 L271.14 1539.92 L271.14 1535.98 Q273.802 1533.23 278.385 1528.6 Q282.991 1523.95 284.172 1522.61 Q286.417 1520.08 287.297 1518.35 Q288.2 1516.59 288.2 1514.9 Q288.2 1512.14 286.255 1510.41 Q284.334 1508.67 281.232 1508.67 Q279.033 1508.67 276.579 1509.43 Q274.149 1510.2 271.371 1511.75 L271.371 1507.03 Q274.195 1505.89 276.649 1505.31 Q279.102 1504.73 281.139 1504.73 Q286.51 1504.73 289.704 1507.42 Q292.899 1510.11 292.899 1514.6 Q292.899 1516.73 292.088 1518.65 Q291.301 1520.54 289.195 1523.14 Q288.616 1523.81 285.514 1527.03 Q282.413 1530.22 276.764 1535.98 Z" fill="#000000" fill-rule="evenodd" fill-opacity="1" /><path clip-path="url(#clip300)" d="M 0 0 M797.641 1525.04 L810.118 1525.04 L810.118 1528.83 L797.641 1528.83 L797.641 1525.04 Z" fill="#000000" fill-rule="evenodd" fill-opacity="1" /><path clip-path="url(#clip300)" d="M 0 0 M815.998 1535.98 L823.637 1535.98 L823.637 1509.62 L815.326 1511.29 L815.326 1507.03 L823.59 1505.36 L828.266 1505.36 L828.266 1535.98 L835.905 1535.98 L835.905 1539.92 L815.998 1539.92 L815.998 1535.98 Z" fill="#000000" fill-rule="evenodd" fill-opacity="1" /><path clip-path="url(#clip300)" d="M 0 0 M1359.41 1508.44 Q1355.8 1508.44 1353.97 1512 Q1352.16 1515.55 1352.16 1522.67 Q1352.16 1529.78 1353.97 1533.35 Q1355.8 1536.89 1359.41 1536.89 Q1363.04 1536.89 1364.85 1533.35 Q1366.68 1529.78 1366.68 1522.67 Q1366.68 1515.55 1364.85 1512 Q1363.04 1508.44 1359.41 1508.44 M1359.41 1504.73 Q1365.22 1504.73 1368.28 1509.34 Q1371.35 1513.92 1371.35 1522.67 Q1371.35 1531.4 1368.28 1536.01 Q1365.22 1540.59 1359.41 1540.59 Q1353.6 1540.59 1350.52 1536.01 Q1347.46 1531.4 1347.46 1522.67 Q1347.46 1513.92 1350.52 1509.34 Q1353.6 1504.73 1359.41 1504.73 Z" fill="#000000" fill-rule="evenodd" fill-opacity="1" /><path clip-path="url(#clip300)" d="M 0 0 M1892.43 1535.98 L1900.07 1535.98 L1900.07 1509.62 L1891.76 1511.29 L1891.76 1507.03 L1900.02 1505.36 L1904.7 1505.36 L1904.7 1535.98 L1912.33 1535.98 L1912.33 1539.92 L1892.43 1539.92 L1892.43 1535.98 Z" fill="#000000" fill-rule="evenodd" fill-opacity="1" /><path clip-path="url(#clip300)" d="M 0 0 M62.9921 1187.19 L75.4689 1187.19 L75.4689 1190.99 L62.9921 1190.99 L62.9921 1187.19 Z" fill="#000000" fill-rule="evenodd" fill-opacity="1" /><path clip-path="url(#clip300)" d="M 0 0 M90.5383 1170.59 Q86.9272 1170.59 85.0985 1174.16 Q83.2929 1177.7 83.2929 1184.83 Q83.2929 1191.93 85.0985 1195.5 Q86.9272 1199.04 90.5383 1199.04 Q94.1725 1199.04 95.9781 1195.5 Q97.8068 1191.93 97.8068 1184.83 Q97.8068 1177.7 95.9781 1174.16 Q94.1725 1170.59 90.5383 1170.59 M90.5383 1166.89 Q96.3484 1166.89 99.404 1171.49 Q102.483 1176.08 102.483 1184.83 Q102.483 1193.55 99.404 1198.16 Q96.3484 1202.74 90.5383 1202.74 Q84.7281 1202.74 81.6494 1198.16 Q78.5939 1193.55 78.5939 1184.83 Q78.5939 1176.08 81.6494 1171.49 Q84.7281 1166.89 90.5383 1166.89 Z" fill="#000000" fill-rule="evenodd" fill-opacity="1" /><path clip-path="url(#clip300)" d="M 0 0 M107.552 1196.19 L112.436 1196.19 L112.436 1202.07 L107.552 1202.07 L107.552 1196.19 Z" fill="#000000" fill-rule="evenodd" fill-opacity="1" /><path clip-path="url(#clip300)" d="M 0 0 M117.552 1167.51 L135.908 1167.51 L135.908 1171.45 L121.834 1171.45 L121.834 1179.92 Q122.853 1179.57 123.871 1179.41 Q124.89 1179.23 125.908 1179.23 Q131.695 1179.23 135.075 1182.4 Q138.455 1185.57 138.455 1190.99 Q138.455 1196.56 134.982 1199.67 Q131.51 1202.74 125.191 1202.74 Q123.015 1202.74 120.746 1202.37 Q118.501 1202 116.094 1201.26 L116.094 1196.56 Q118.177 1197.7 120.399 1198.25 Q122.621 1198.81 125.098 1198.81 Q129.103 1198.81 131.441 1196.7 Q133.779 1194.6 133.779 1190.99 Q133.779 1187.37 131.441 1185.27 Q129.103 1183.16 125.098 1183.16 Q123.223 1183.16 121.348 1183.58 Q119.496 1183.99 117.552 1184.87 L117.552 1167.51 Z" fill="#000000" fill-rule="evenodd" fill-opacity="1" /><path clip-path="url(#clip300)" d="M 0 0 M89.5429 867.717 Q85.9318 867.717 84.1031 871.281 Q82.2976 874.823 82.2976 881.953 Q82.2976 889.059 84.1031 892.624 Q85.9318 896.165 89.5429 896.165 Q93.1771 896.165 94.9827 892.624 Q96.8114 889.059 96.8114 881.953 Q96.8114 874.823 94.9827 871.281 Q93.1771 867.717 89.5429 867.717 M89.5429 864.013 Q95.3531 864.013 98.4086 868.619 Q101.487 873.203 101.487 881.953 Q101.487 890.679 98.4086 895.286 Q95.3531 899.869 89.5429 899.869 Q83.7328 899.869 80.6541 895.286 Q77.5985 890.679 77.5985 881.953 Q77.5985 873.203 80.6541 868.619 Q83.7328 864.013 89.5429 864.013 Z" fill="#000000" fill-rule="evenodd" fill-opacity="1" /><path clip-path="url(#clip300)" d="M 0 0 M106.557 893.318 L111.441 893.318 L111.441 899.198 L106.557 899.198 L106.557 893.318 Z" fill="#000000" fill-rule="evenodd" fill-opacity="1" /><path clip-path="url(#clip300)" d="M 0 0 M126.51 867.717 Q122.899 867.717 121.071 871.281 Q119.265 874.823 119.265 881.953 Q119.265 889.059 121.071 892.624 Q122.899 896.165 126.51 896.165 Q130.145 896.165 131.95 892.624 Q133.779 889.059 133.779 881.953 Q133.779 874.823 131.95 871.281 Q130.145 867.717 126.51 867.717 M126.51 864.013 Q132.32 864.013 135.376 868.619 Q138.455 873.203 138.455 881.953 Q138.455 890.679 135.376 895.286 Q132.32 899.869 126.51 899.869 Q120.7 899.869 117.621 895.286 Q114.566 890.679 114.566 881.953 Q114.566 873.203 117.621 868.619 Q120.7 864.013 126.51 864.013 Z" fill="#000000" fill-rule="evenodd" fill-opacity="1" /><path clip-path="url(#clip300)" d="M 0 0 M90.5383 564.841 Q86.9272 564.841 85.0985 568.406 Q83.2929 571.948 83.2929 579.077 Q83.2929 586.184 85.0985 589.748 Q86.9272 593.29 90.5383 593.29 Q94.1725 593.29 95.9781 589.748 Q97.8068 586.184 97.8068 579.077 Q97.8068 571.948 95.9781 568.406 Q94.1725 564.841 90.5383 564.841 M90.5383 561.138 Q96.3484 561.138 99.404 565.744 Q102.483 570.327 102.483 579.077 Q102.483 587.804 99.404 592.411 Q96.3484 596.994 90.5383 596.994 Q84.7281 596.994 81.6494 592.411 Q78.5939 587.804 78.5939 579.077 Q78.5939 570.327 81.6494 565.744 Q84.7281 561.138 90.5383 561.138 Z" fill="#000000" fill-rule="evenodd" fill-opacity="1" /><path clip-path="url(#clip300)" d="M 0 0 M107.552 590.443 L112.436 590.443 L112.436 596.323 L107.552 596.323 L107.552 590.443 Z" fill="#000000" fill-rule="evenodd" fill-opacity="1" /><path clip-path="url(#clip300)" d="M 0 0 M117.552 561.763 L135.908 561.763 L135.908 565.698 L121.834 565.698 L121.834 574.17 Q122.853 573.823 123.871 573.661 Q124.89 573.475 125.908 573.475 Q131.695 573.475 135.075 576.647 Q138.455 579.818 138.455 585.235 Q138.455 590.813 134.982 593.915 Q131.51 596.994 125.191 596.994 Q123.015 596.994 120.746 596.623 Q118.501 596.253 116.094 595.512 L116.094 590.813 Q118.177 591.948 120.399 592.503 Q122.621 593.059 125.098 593.059 Q129.103 593.059 131.441 590.952 Q133.779 588.846 133.779 585.235 Q133.779 581.624 131.441 579.517 Q129.103 577.411 125.098 577.411 Q123.223 577.411 121.348 577.827 Q119.496 578.244 117.552 579.124 L117.552 561.763 Z" fill="#000000" fill-rule="evenodd" fill-opacity="1" /><path clip-path="url(#clip300)" d="M 0 0 M81.58 289.512 L89.2188 289.512 L89.2188 263.146 L80.9087 264.813 L80.9087 260.554 L89.1725 258.887 L93.8484 258.887 L93.8484 289.512 L101.487 289.512 L101.487 293.447 L81.58 293.447 L81.58 289.512 Z" fill="#000000" fill-rule="evenodd" fill-opacity="1" /><path clip-path="url(#clip300)" d="M 0 0 M106.557 287.568 L111.441 287.568 L111.441 293.447 L106.557 293.447 L106.557 287.568 Z" fill="#000000" fill-rule="evenodd" fill-opacity="1" /><path clip-path="url(#clip300)" d="M 0 0 M126.51 261.966 Q122.899 261.966 121.071 265.531 Q119.265 269.072 119.265 276.202 Q119.265 283.308 121.071 286.873 Q122.899 290.415 126.51 290.415 Q130.145 290.415 131.95 286.873 Q133.779 283.308 133.779 276.202 Q133.779 269.072 131.95 265.531 Q130.145 261.966 126.51 261.966 M126.51 258.262 Q132.32 258.262 135.376 262.869 Q138.455 267.452 138.455 276.202 Q138.455 284.929 135.376 289.535 Q132.32 294.118 126.51 294.118 Q120.7 294.118 117.621 289.535 Q114.566 284.929 114.566 276.202 Q114.566 267.452 117.621 262.869 Q120.7 258.262 126.51 258.262 Z" fill="#000000" fill-rule="evenodd" fill-opacity="1" /><polyline clip-path="url(#clip302)" style="stroke:#000000; stroke-width:4; stroke-opacity:1; fill:none" points="
  1198.58,1335.09 1413.84,1335.09 
  "/>
<polyline clip-path="url(#clip302)" style="stroke:#000000; stroke-width:4; stroke-opacity:1; fill:none" points="
  1720.28,504.534 1919,504.534 
  "/>
<polyline clip-path="url(#clip302)" style="stroke:#000000; stroke-width:4; stroke-opacity:1; fill:none" points="
  874.445,206.599 1096.99,206.599 
  "/>
<polyline clip-path="url(#clip302)" style="stroke:#000000; stroke-width:4; stroke-opacity:1; fill:none" points="
  1364.77,758.194 1579.53,758.194 
  "/>
<polyline clip-path="url(#clip302)" style="stroke:#000000; stroke-width:4; stroke-opacity:1; fill:none" points="
  224.444,845.559 458.652,845.559 
  "/>
<polyline clip-path="url(#clip302)" style="stroke:#000000; stroke-width:4; stroke-opacity:1; fill:none" points="
  909.724,818.722 1127.71,818.722 
  "/>
<polyline clip-path="url(#clip302)" style="stroke:#000000; stroke-width:4; stroke-opacity:1; fill:none" points="
  2099.25,250.004 2290.77,250.004 
  "/>
<polyline clip-path="url(#clip302)" style="stroke:#000000; stroke-width:4; stroke-opacity:1; fill:none" points="
  913.763,899.8 1133.96,899.8 
  "/>
<polyline clip-path="url(#clip302)" style="stroke:#000000; stroke-width:4; stroke-opacity:1; fill:none" points="
  938.882,1225.81 1158.91,1225.81 
  "/>
<polyline clip-path="url(#clip302)" style="stroke:#000000; stroke-width:4; stroke-opacity:1; fill:none" points="
  1456.77,833.835 1667.74,833.835 
  "/>
<line clip-path="url(#clip302)" x1="1198.58" y1="1359.09" x2="1198.58" y2="1311.09" style="stroke:#000000; stroke-width:3.2; stroke-opacity:1"/>
<line clip-path="url(#clip302)" x1="1413.84" y1="1359.09" x2="1413.84" y2="1311.09" style="stroke:#000000; stroke-width:3.2; stroke-opacity:1"/>
<line clip-path="url(#clip302)" x1="1720.28" y1="528.534" x2="1720.28" y2="480.534" style="stroke:#000000; stroke-width:3.2; stroke-opacity:1"/>
<line clip-path="url(#clip302)" x1="1919" y1="528.534" x2="1919" y2="480.534" style="stroke:#000000; stroke-width:3.2; stroke-opacity:1"/>
<line clip-path="url(#clip302)" x1="874.445" y1="230.599" x2="874.445" y2="182.599" style="stroke:#000000; stroke-width:3.2; stroke-opacity:1"/>
<line clip-path="url(#clip302)" x1="1096.99" y1="230.599" x2="1096.99" y2="182.599" style="stroke:#000000; stroke-width:3.2; stroke-opacity:1"/>
<line clip-path="url(#clip302)" x1="1364.77" y1="782.194" x2="1364.77" y2="734.194" style="stroke:#000000; stroke-width:3.2; stroke-opacity:1"/>
<line clip-path="url(#clip302)" x1="1579.53" y1="782.194" x2="1579.53" y2="734.194" style="stroke:#000000; stroke-width:3.2; stroke-opacity:1"/>
<line clip-path="url(#clip302)" x1="224.444" y1="869.559" x2="224.444" y2="821.559" style="stroke:#000000; stroke-width:3.2; stroke-opacity:1"/>
<line clip-path="url(#clip302)" x1="458.652" y1="869.559" x2="458.652" y2="821.559" style="stroke:#000000; stroke-width:3.2; stroke-opacity:1"/>
<line clip-path="url(#clip302)" x1="909.724" y1="842.722" x2="909.724" y2="794.722" style="stroke:#000000; stroke-width:3.2; stroke-opacity:1"/>
<line clip-path="url(#clip302)" x1="1127.71" y1="842.722" x2="1127.71" y2="794.722" style="stroke:#000000; stroke-width:3.2; stroke-opacity:1"/>
<line clip-path="url(#clip302)" x1="2099.25" y1="274.004" x2="2099.25" y2="226.004" style="stroke:#000000; stroke-width:3.2; stroke-opacity:1"/>
<line clip-path="url(#clip302)" x1="2290.77" y1="274.004" x2="2290.77" y2="226.004" style="stroke:#000000; stroke-width:3.2; stroke-opacity:1"/>
<line clip-path="url(#clip302)" x1="913.763" y1="923.8" x2="913.763" y2="875.8" style="stroke:#000000; stroke-width:3.2; stroke-opacity:1"/>
<line clip-path="url(#clip302)" x1="1133.96" y1="923.8" x2="1133.96" y2="875.8" style="stroke:#000000; stroke-width:3.2; stroke-opacity:1"/>
<line clip-path="url(#clip302)" x1="938.882" y1="1249.81" x2="938.882" y2="1201.81" style="stroke:#000000; stroke-width:3.2; stroke-opacity:1"/>
<line clip-path="url(#clip302)" x1="1158.91" y1="1249.81" x2="1158.91" y2="1201.81" style="stroke:#000000; stroke-width:3.2; stroke-opacity:1"/>
<line clip-path="url(#clip302)" x1="1456.77" y1="857.835" x2="1456.77" y2="809.835" style="stroke:#000000; stroke-width:3.2; stroke-opacity:1"/>
<line clip-path="url(#clip302)" x1="1667.74" y1="857.835" x2="1667.74" y2="809.835" style="stroke:#000000; stroke-width:3.2; stroke-opacity:1"/>
<polyline clip-path="url(#clip302)" style="stroke:#000000; stroke-width:4; stroke-opacity:1; fill:none" points="
  1311.6,1445.72 1311.6,1226.47 
  "/>
<polyline clip-path="url(#clip302)" style="stroke:#000000; stroke-width:4; stroke-opacity:1; fill:none" points="
  1825.31,619.785 1825.31,396.446 
  "/>
<polyline clip-path="url(#clip302)" style="stroke:#000000; stroke-width:4; stroke-opacity:1; fill:none" points="
  987.341,334.968 987.341,87.9763 
  "/>
<polyline clip-path="url(#clip302)" style="stroke:#000000; stroke-width:4; stroke-opacity:1; fill:none" points="
  1473.19,870.22 1473.19,645.423 
  "/>
<polyline clip-path="url(#clip302)" style="stroke:#000000; stroke-width:4; stroke-opacity:1; fill:none" points="
  343.19,961.379 343.19,716.213 
  "/>
<polyline clip-path="url(#clip302)" style="stroke:#000000; stroke-width:4; stroke-opacity:1; fill:none" points="
  1022.17,932.251 1022.17,699.451 
  "/>
<polyline clip-path="url(#clip302)" style="stroke:#000000; stroke-width:4; stroke-opacity:1; fill:none" points="
  2190.44,365.797 2190.44,127.307 
  "/>
<polyline clip-path="url(#clip302)" style="stroke:#000000; stroke-width:4; stroke-opacity:1; fill:none" points="
  1024.94,1020.22 1024.94,794.205 
  "/>
<polyline clip-path="url(#clip302)" style="stroke:#000000; stroke-width:4; stroke-opacity:1; fill:none" points="
  1051.2,1327.63 1051.2,1119.86 
  "/>
<polyline clip-path="url(#clip302)" style="stroke:#000000; stroke-width:4; stroke-opacity:1; fill:none" points="
  1571.22,961.849 1571.22,717.376 
  "/>
<line clip-path="url(#clip302)" x1="1335.6" y1="1445.72" x2="1287.6" y2="1445.72" style="stroke:#000000; stroke-width:3.2; stroke-opacity:1"/>
<line clip-path="url(#clip302)" x1="1335.6" y1="1226.47" x2="1287.6" y2="1226.47" style="stroke:#000000; stroke-width:3.2; stroke-opacity:1"/>
<line clip-path="url(#clip302)" x1="1849.31" y1="619.785" x2="1801.31" y2="619.785" style="stroke:#000000; stroke-width:3.2; stroke-opacity:1"/>
<line clip-path="url(#clip302)" x1="1849.31" y1="396.446" x2="1801.31" y2="396.446" style="stroke:#000000; stroke-width:3.2; stroke-opacity:1"/>
<line clip-path="url(#clip302)" x1="1011.34" y1="334.968" x2="963.341" y2="334.968" style="stroke:#000000; stroke-width:3.2; stroke-opacity:1"/>
<line clip-path="url(#clip302)" x1="1011.34" y1="87.9763" x2="963.341" y2="87.9763" style="stroke:#000000; stroke-width:3.2; stroke-opacity:1"/>
<line clip-path="url(#clip302)" x1="1497.19" y1="870.22" x2="1449.19" y2="870.22" style="stroke:#000000; stroke-width:3.2; stroke-opacity:1"/>
<line clip-path="url(#clip302)" x1="1497.19" y1="645.423" x2="1449.19" y2="645.423" style="stroke:#000000; stroke-width:3.2; stroke-opacity:1"/>
<line clip-path="url(#clip302)" x1="367.19" y1="961.379" x2="319.19" y2="961.379" style="stroke:#000000; stroke-width:3.2; stroke-opacity:1"/>
<line clip-path="url(#clip302)" x1="367.19" y1="716.213" x2="319.19" y2="716.213" style="stroke:#000000; stroke-width:3.2; stroke-opacity:1"/>
<line clip-path="url(#clip302)" x1="1046.17" y1="932.251" x2="998.171" y2="932.251" style="stroke:#000000; stroke-width:3.2; stroke-opacity:1"/>
<line clip-path="url(#clip302)" x1="1046.17" y1="699.451" x2="998.171" y2="699.451" style="stroke:#000000; stroke-width:3.2; stroke-opacity:1"/>
<line clip-path="url(#clip302)" x1="2214.44" y1="365.797" x2="2166.44" y2="365.797" style="stroke:#000000; stroke-width:3.2; stroke-opacity:1"/>
<line clip-path="url(#clip302)" x1="2214.44" y1="127.307" x2="2166.44" y2="127.307" style="stroke:#000000; stroke-width:3.2; stroke-opacity:1"/>
<line clip-path="url(#clip302)" x1="1048.94" y1="1020.22" x2="1000.94" y2="1020.22" style="stroke:#000000; stroke-width:3.2; stroke-opacity:1"/>
<line clip-path="url(#clip302)" x1="1048.94" y1="794.205" x2="1000.94" y2="794.205" style="stroke:#000000; stroke-width:3.2; stroke-opacity:1"/>
<line clip-path="url(#clip302)" x1="1075.2" y1="1327.63" x2="1027.2" y2="1327.63" style="stroke:#000000; stroke-width:3.2; stroke-opacity:1"/>
<line clip-path="url(#clip302)" x1="1075.2" y1="1119.86" x2="1027.2" y2="1119.86" style="stroke:#000000; stroke-width:3.2; stroke-opacity:1"/>
<line clip-path="url(#clip302)" x1="1595.22" y1="961.849" x2="1547.22" y2="961.849" style="stroke:#000000; stroke-width:3.2; stroke-opacity:1"/>
<line clip-path="url(#clip302)" x1="1595.22" y1="717.376" x2="1547.22" y2="717.376" style="stroke:#000000; stroke-width:3.2; stroke-opacity:1"/>
<circle clip-path="url(#clip302)" cx="1311.6" cy="1335.09" r="21" fill="#009af9" fill-rule="evenodd" fill-opacity="1" stroke="#000000" stroke-opacity="1" stroke-width="3.2"/>
<circle clip-path="url(#clip302)" cx="1825.31" cy="504.534" r="21" fill="#009af9" fill-rule="evenodd" fill-opacity="1" stroke="#000000" stroke-opacity="1" stroke-width="3.2"/>
<circle clip-path="url(#clip302)" cx="987.341" cy="206.599" r="21" fill="#009af9" fill-rule="evenodd" fill-opacity="1" stroke="#000000" stroke-opacity="1" stroke-width="3.2"/>
<circle clip-path="url(#clip302)" cx="1473.19" cy="758.194" r="21" fill="#009af9" fill-rule="evenodd" fill-opacity="1" stroke="#000000" stroke-opacity="1" stroke-width="3.2"/>
<circle clip-path="url(#clip302)" cx="343.19" cy="845.559" r="21" fill="#009af9" fill-rule="evenodd" fill-opacity="1" stroke="#000000" stroke-opacity="1" stroke-width="3.2"/>
<circle clip-path="url(#clip302)" cx="1022.17" cy="818.722" r="21" fill="#009af9" fill-rule="evenodd" fill-opacity="1" stroke="#000000" stroke-opacity="1" stroke-width="3.2"/>
<circle clip-path="url(#clip302)" cx="2190.44" cy="250.004" r="21" fill="#009af9" fill-rule="evenodd" fill-opacity="1" stroke="#000000" stroke-opacity="1" stroke-width="3.2"/>
<circle clip-path="url(#clip302)" cx="1024.94" cy="899.8" r="21" fill="#009af9" fill-rule="evenodd" fill-opacity="1" stroke="#000000" stroke-opacity="1" stroke-width="3.2"/>
<circle clip-path="url(#clip302)" cx="1051.2" cy="1225.81" r="21" fill="#009af9" fill-rule="evenodd" fill-opacity="1" stroke="#000000" stroke-opacity="1" stroke-width="3.2"/>
<circle clip-path="url(#clip302)" cx="1571.22" cy="833.835" r="21" fill="#009af9" fill-rule="evenodd" fill-opacity="1" stroke="#000000" stroke-opacity="1" stroke-width="3.2"/>
<circle clip-path="url(#clip302)" cx="1313.59" cy="1330.97" r="14" fill="#e26f46" fill-rule="evenodd" fill-opacity="1" stroke="#000000" stroke-opacity="1" stroke-width="3.2"/>
<circle clip-path="url(#clip302)" cx="1826.53" cy="505.792" r="14" fill="#e26f46" fill-rule="evenodd" fill-opacity="1" stroke="#000000" stroke-opacity="1" stroke-width="3.2"/>
<circle clip-path="url(#clip302)" cx="988.828" cy="203.965" r="14" fill="#e26f46" fill-rule="evenodd" fill-opacity="1" stroke="#000000" stroke-opacity="1" stroke-width="3.2"/>
<circle clip-path="url(#clip302)" cx="1476.33" cy="759.749" r="14" fill="#e26f46" fill-rule="evenodd" fill-opacity="1" stroke="#000000" stroke-opacity="1" stroke-width="3.2"/>
<circle clip-path="url(#clip302)" cx="346.017" cy="844.912" r="14" fill="#e26f46" fill-rule="evenodd" fill-opacity="1" stroke="#000000" stroke-opacity="1" stroke-width="3.2"/>
<circle clip-path="url(#clip302)" cx="1022.19" cy="820.763" r="14" fill="#e26f46" fill-rule="evenodd" fill-opacity="1" stroke="#000000" stroke-opacity="1" stroke-width="3.2"/>
<circle clip-path="url(#clip302)" cx="2193.63" cy="249.306" r="14" fill="#e26f46" fill-rule="evenodd" fill-opacity="1" stroke="#000000" stroke-opacity="1" stroke-width="3.2"/>
<circle clip-path="url(#clip302)" cx="1025.27" cy="898.821" r="14" fill="#e26f46" fill-rule="evenodd" fill-opacity="1" stroke="#000000" stroke-opacity="1" stroke-width="3.2"/>
<circle clip-path="url(#clip302)" cx="1052.61" cy="1225.24" r="14" fill="#e26f46" fill-rule="evenodd" fill-opacity="1" stroke="#000000" stroke-opacity="1" stroke-width="3.2"/>
<circle clip-path="url(#clip302)" cx="1571.19" cy="834.253" r="14" fill="#e26f46" fill-rule="evenodd" fill-opacity="1" stroke="#000000" stroke-opacity="1" stroke-width="3.2"/>
<circle clip-path="url(#clip302)" cx="1287.94" cy="1286.17" r="14" fill="#3da44d" fill-rule="evenodd" fill-opacity="1" stroke="#000000" stroke-opacity="1" stroke-width="3.2"/>
<circle clip-path="url(#clip302)" cx="1917.64" cy="436.482" r="14" fill="#3da44d" fill-rule="evenodd" fill-opacity="1" stroke="#000000" stroke-opacity="1" stroke-width="3.2"/>
<circle clip-path="url(#clip302)" cx="1039.88" cy="198.634" r="14" fill="#3da44d" fill-rule="evenodd" fill-opacity="1" stroke="#000000" stroke-opacity="1" stroke-width="3.2"/>
<circle clip-path="url(#clip302)" cx="1533.04" cy="804.195" r="14" fill="#3da44d" fill-rule="evenodd" fill-opacity="1" stroke="#000000" stroke-opacity="1" stroke-width="3.2"/>
<circle clip-path="url(#clip302)" cx="407.711" cy="827.818" r="14" fill="#3da44d" fill-rule="evenodd" fill-opacity="1" stroke="#000000" stroke-opacity="1" stroke-width="3.2"/>
<circle clip-path="url(#clip302)" cx="998.696" cy="786.244" r="14" fill="#3da44d" fill-rule="evenodd" fill-opacity="1" stroke="#000000" stroke-opacity="1" stroke-width="3.2"/>
<circle clip-path="url(#clip302)" cx="2229.69" cy="165.02" r="14" fill="#3da44d" fill-rule="evenodd" fill-opacity="1" stroke="#000000" stroke-opacity="1" stroke-width="3.2"/>
<circle clip-path="url(#clip302)" cx="966.281" cy="929.506" r="14" fill="#3da44d" fill-rule="evenodd" fill-opacity="1" stroke="#000000" stroke-opacity="1" stroke-width="3.2"/>
<circle clip-path="url(#clip302)" cx="1030.01" cy="1291.49" r="14" fill="#3da44d" fill-rule="evenodd" fill-opacity="1" stroke="#000000" stroke-opacity="1" stroke-width="3.2"/>
<circle clip-path="url(#clip302)" cx="1516.72" cy="849.942" r="14" fill="#3da44d" fill-rule="evenodd" fill-opacity="1" stroke="#000000" stroke-opacity="1" stroke-width="3.2"/>
<path clip-path="url(#clip300)" d="
M1518.28 372.684 L2280.76 372.684 L2280.76 130.764 L1518.28 130.764  Z
  " fill="#ffffff" fill-rule="evenodd" fill-opacity="1"/>
<polyline clip-path="url(#clip300)" style="stroke:#000000; stroke-width:4; stroke-opacity:1; fill:none" points="
  1518.28,372.684 2280.76,372.684 2280.76,130.764 1518.28,130.764 1518.28,372.684 
  "/>
<circle clip-path="url(#clip300)" cx="1626.28" cy="191.244" r="23" fill="#009af9" fill-rule="evenodd" fill-opacity="1" stroke="#000000" stroke-opacity="1" stroke-width="3.41333"/>
<path clip-path="url(#clip300)" d="M 0 0 M1710.28 173.964 L1717.25 173.964 L1726.07 197.482 L1734.93 173.964 L1741.9 173.964 L1741.9 208.524 L1737.34 208.524 L1737.34 178.177 L1728.43 201.881 L1723.73 201.881 L1714.82 178.177 L1714.82 208.524 L1710.28 208.524 L1710.28 173.964 Z" fill="#000000" fill-rule="evenodd" fill-opacity="1" /><path clip-path="url(#clip300)" d="M 0 0 M1768.55 194.496 L1768.55 196.58 L1748.96 196.58 Q1749.24 200.978 1751.6 203.293 Q1753.99 205.584 1758.22 205.584 Q1760.68 205.584 1762.97 204.982 Q1765.28 204.381 1767.55 203.177 L1767.55 207.205 Q1765.26 208.177 1762.85 208.686 Q1760.44 209.195 1757.97 209.195 Q1751.76 209.195 1748.13 205.584 Q1744.52 201.973 1744.52 195.816 Q1744.52 189.45 1747.94 185.723 Q1751.39 181.973 1757.23 181.973 Q1762.46 181.973 1765.49 185.353 Q1768.55 188.709 1768.55 194.496 M1764.29 193.246 Q1764.24 189.751 1762.32 187.668 Q1760.42 185.584 1757.27 185.584 Q1753.71 185.584 1751.55 187.598 Q1749.43 189.612 1749.1 193.27 L1764.29 193.246 Z" fill="#000000" fill-rule="evenodd" fill-opacity="1" /><path clip-path="url(#clip300)" d="M 0 0 M1784.8 195.492 Q1779.63 195.492 1777.64 196.672 Q1775.65 197.853 1775.65 200.7 Q1775.65 202.969 1777.13 204.311 Q1778.64 205.631 1781.21 205.631 Q1784.75 205.631 1786.88 203.131 Q1789.03 200.607 1789.03 196.441 L1789.03 195.492 L1784.8 195.492 M1793.29 193.733 L1793.29 208.524 L1789.03 208.524 L1789.03 204.589 Q1787.57 206.95 1785.4 208.084 Q1783.22 209.195 1780.07 209.195 Q1776.09 209.195 1773.73 206.973 Q1771.39 204.728 1771.39 200.978 Q1771.39 196.603 1774.31 194.381 Q1777.25 192.158 1783.06 192.158 L1789.03 192.158 L1789.03 191.742 Q1789.03 188.802 1787.09 187.205 Q1785.17 185.584 1781.67 185.584 Q1779.45 185.584 1777.34 186.117 Q1775.24 186.649 1773.29 187.714 L1773.29 183.779 Q1775.63 182.876 1777.83 182.436 Q1780.03 181.973 1782.11 181.973 Q1787.74 181.973 1790.51 184.89 Q1793.29 187.807 1793.29 193.733 Z" fill="#000000" fill-rule="evenodd" fill-opacity="1" /><path clip-path="url(#clip300)" d="M 0 0 M1819.31 192.876 L1819.31 208.524 L1815.05 208.524 L1815.05 193.015 Q1815.05 189.334 1813.61 187.506 Q1812.18 185.677 1809.31 185.677 Q1805.86 185.677 1803.87 187.876 Q1801.88 190.075 1801.88 193.871 L1801.88 208.524 L1797.6 208.524 L1797.6 182.598 L1801.88 182.598 L1801.88 186.626 Q1803.41 184.288 1805.47 183.131 Q1807.55 181.973 1810.26 181.973 Q1814.73 181.973 1817.02 184.751 Q1819.31 187.506 1819.31 192.876 Z" fill="#000000" fill-rule="evenodd" fill-opacity="1" /><path clip-path="url(#clip300)" d="M 0 0 M1836.37 182.598 L1840.63 182.598 L1845.95 202.83 L1851.25 182.598 L1856.28 182.598 L1861.6 202.83 L1866.9 182.598 L1871.16 182.598 L1864.38 208.524 L1859.36 208.524 L1853.78 187.274 L1848.17 208.524 L1843.15 208.524 L1836.37 182.598 Z" fill="#000000" fill-rule="evenodd" fill-opacity="1" /><path clip-path="url(#clip300)" d="M 0 0 M1875.63 182.598 L1879.89 182.598 L1879.89 208.524 L1875.63 208.524 L1875.63 182.598 M1875.63 172.506 L1879.89 172.506 L1879.89 177.899 L1875.63 177.899 L1875.63 172.506 Z" fill="#000000" fill-rule="evenodd" fill-opacity="1" /><path clip-path="url(#clip300)" d="M 0 0 M1888.57 175.237 L1888.57 182.598 L1897.34 182.598 L1897.34 185.908 L1888.57 185.908 L1888.57 199.982 Q1888.57 203.154 1889.42 204.057 Q1890.3 204.959 1892.97 204.959 L1897.34 204.959 L1897.34 208.524 L1892.97 208.524 Q1888.04 208.524 1886.16 206.695 Q1884.29 204.844 1884.29 199.982 L1884.29 185.908 L1881.16 185.908 L1881.16 182.598 L1884.29 182.598 L1884.29 175.237 L1888.57 175.237 Z" fill="#000000" fill-rule="evenodd" fill-opacity="1" /><path clip-path="url(#clip300)" d="M 0 0 M1923.36 192.876 L1923.36 208.524 L1919.1 208.524 L1919.1 193.015 Q1919.1 189.334 1917.67 187.506 Q1916.23 185.677 1913.36 185.677 Q1909.91 185.677 1907.92 187.876 Q1905.93 190.075 1905.93 193.871 L1905.93 208.524 L1901.65 208.524 L1901.65 172.506 L1905.93 172.506 L1905.93 186.626 Q1907.46 184.288 1909.52 183.131 Q1911.6 181.973 1914.31 181.973 Q1918.78 181.973 1921.07 184.751 Q1923.36 187.506 1923.36 192.876 Z" fill="#000000" fill-rule="evenodd" fill-opacity="1" /><path clip-path="url(#clip300)" d="M 0 0 M1953.5 177.043 Q1949.89 177.043 1948.06 180.608 Q1946.25 184.149 1946.25 191.279 Q1946.25 198.385 1948.06 201.95 Q1949.89 205.492 1953.5 205.492 Q1957.13 205.492 1958.94 201.95 Q1960.77 198.385 1960.77 191.279 Q1960.77 184.149 1958.94 180.608 Q1957.13 177.043 1953.5 177.043 M1953.5 173.339 Q1959.31 173.339 1962.36 177.946 Q1965.44 182.529 1965.44 191.279 Q1965.44 200.006 1962.36 204.612 Q1959.31 209.195 1953.5 209.195 Q1947.69 209.195 1944.61 204.612 Q1941.55 200.006 1941.55 191.279 Q1941.55 182.529 1944.61 177.946 Q1947.69 173.339 1953.5 173.339 Z" fill="#000000" fill-rule="evenodd" fill-opacity="1" /><path clip-path="url(#clip300)" d="M 0 0 M1970.51 202.644 L1975.4 202.644 L1975.4 208.524 L1970.51 208.524 L1970.51 202.644 Z" fill="#000000" fill-rule="evenodd" fill-opacity="1" /><path clip-path="url(#clip300)" d="M 0 0 M1990.47 177.043 Q1986.85 177.043 1985.03 180.608 Q1983.22 184.149 1983.22 191.279 Q1983.22 198.385 1985.03 201.95 Q1986.85 205.492 1990.47 205.492 Q1994.1 205.492 1995.91 201.95 Q1997.73 198.385 1997.73 191.279 Q1997.73 184.149 1995.91 180.608 Q1994.1 177.043 1990.47 177.043 M1990.47 173.339 Q1996.28 173.339 1999.33 177.946 Q2002.41 182.529 2002.41 191.279 Q2002.41 200.006 1999.33 204.612 Q1996.28 209.195 1990.47 209.195 Q1984.66 209.195 1981.58 204.612 Q1978.52 200.006 1978.52 191.279 Q1978.52 182.529 1981.58 177.946 Q1984.66 173.339 1990.47 173.339 Z" fill="#000000" fill-rule="evenodd" fill-opacity="1" /><path clip-path="url(#clip300)" d="M 0 0 M2011.51 204.589 L2027.83 204.589 L2027.83 208.524 L2005.88 208.524 L2005.88 204.589 Q2008.54 201.834 2013.13 197.205 Q2017.73 192.552 2018.91 191.209 Q2021.16 188.686 2022.04 186.95 Q2022.94 185.191 2022.94 183.501 Q2022.94 180.746 2021 179.01 Q2019.08 177.274 2015.97 177.274 Q2013.78 177.274 2011.32 178.038 Q2008.89 178.802 2006.11 180.353 L2006.11 175.631 Q2008.94 174.496 2011.39 173.918 Q2013.85 173.339 2015.88 173.339 Q2021.25 173.339 2024.45 176.024 Q2027.64 178.709 2027.64 183.2 Q2027.64 185.33 2026.83 187.251 Q2026.04 189.149 2023.94 191.742 Q2023.36 192.413 2020.26 195.631 Q2017.16 198.825 2011.51 204.589 Z" fill="#000000" fill-rule="evenodd" fill-opacity="1" /><path clip-path="url(#clip300)" d="M 0 0 M2032.94 173.964 L2051.3 173.964 L2051.3 177.899 L2037.22 177.899 L2037.22 186.371 Q2038.24 186.024 2039.26 185.862 Q2040.28 185.677 2041.3 185.677 Q2047.09 185.677 2050.47 188.848 Q2053.84 192.02 2053.84 197.436 Q2053.84 203.015 2050.37 206.117 Q2046.9 209.195 2040.58 209.195 Q2038.41 209.195 2036.14 208.825 Q2033.89 208.455 2031.48 207.714 L2031.48 203.015 Q2033.57 204.149 2035.79 204.705 Q2038.01 205.26 2040.49 205.26 Q2044.49 205.26 2046.83 203.154 Q2049.17 201.047 2049.17 197.436 Q2049.17 193.825 2046.83 191.719 Q2044.49 189.612 2040.49 189.612 Q2038.61 189.612 2036.74 190.029 Q2034.89 190.445 2032.94 191.325 L2032.94 173.964 Z" fill="#000000" fill-rule="evenodd" fill-opacity="1" /><path clip-path="url(#clip300)" d="M 0 0 M2075.93 195.584 Q2075.93 200.283 2077.85 202.969 Q2079.79 205.631 2083.17 205.631 Q2086.55 205.631 2088.5 202.969 Q2090.44 200.283 2090.44 195.584 Q2090.44 190.885 2088.5 188.223 Q2086.55 185.538 2083.17 185.538 Q2079.79 185.538 2077.85 188.223 Q2075.93 190.885 2075.93 195.584 M2090.44 204.635 Q2089.1 206.95 2087.04 208.084 Q2085 209.195 2082.13 209.195 Q2077.43 209.195 2074.47 205.445 Q2071.53 201.695 2071.53 195.584 Q2071.53 189.473 2074.47 185.723 Q2077.43 181.973 2082.13 181.973 Q2085 181.973 2087.04 183.108 Q2089.1 184.219 2090.44 186.533 L2090.44 182.598 L2094.7 182.598 L2094.7 218.385 L2090.44 218.385 L2090.44 204.635 Z" fill="#000000" fill-rule="evenodd" fill-opacity="1" /><path clip-path="url(#clip300)" d="M 0 0 M2098.73 198.293 L2098.73 182.598 L2102.99 182.598 L2102.99 198.131 Q2102.99 201.811 2104.42 203.663 Q2105.86 205.492 2108.73 205.492 Q2112.18 205.492 2114.17 203.293 Q2116.18 201.094 2116.18 197.297 L2116.18 182.598 L2120.44 182.598 L2120.44 208.524 L2116.18 208.524 L2116.18 204.543 Q2114.63 206.904 2112.57 208.061 Q2110.53 209.195 2107.83 209.195 Q2103.36 209.195 2101.04 206.418 Q2098.73 203.64 2098.73 198.293 M2109.45 181.973 L2109.45 181.973 Z" fill="#000000" fill-rule="evenodd" fill-opacity="1" /><path clip-path="url(#clip300)" d="M 0 0 M2136.69 195.492 Q2131.53 195.492 2129.54 196.672 Q2127.55 197.853 2127.55 200.7 Q2127.55 202.969 2129.03 204.311 Q2130.53 205.631 2133.1 205.631 Q2136.65 205.631 2138.77 203.131 Q2140.93 200.607 2140.93 196.441 L2140.93 195.492 L2136.69 195.492 M2145.19 193.733 L2145.19 208.524 L2140.93 208.524 L2140.93 204.589 Q2139.47 206.95 2137.29 208.084 Q2135.12 209.195 2131.97 209.195 Q2127.99 209.195 2125.63 206.973 Q2123.29 204.728 2123.29 200.978 Q2123.29 196.603 2126.21 194.381 Q2129.15 192.158 2134.96 192.158 L2140.93 192.158 L2140.93 191.742 Q2140.93 188.802 2138.98 187.205 Q2137.06 185.584 2133.57 185.584 Q2131.34 185.584 2129.24 186.117 Q2127.13 186.649 2125.19 187.714 L2125.19 183.779 Q2127.52 182.876 2129.72 182.436 Q2131.92 181.973 2134.01 181.973 Q2139.63 181.973 2142.41 184.89 Q2145.19 187.807 2145.19 193.733 Z" fill="#000000" fill-rule="evenodd" fill-opacity="1" /><path clip-path="url(#clip300)" d="M 0 0 M2171.21 192.876 L2171.21 208.524 L2166.95 208.524 L2166.95 193.015 Q2166.95 189.334 2165.51 187.506 Q2164.08 185.677 2161.21 185.677 Q2157.76 185.677 2155.77 187.876 Q2153.77 190.075 2153.77 193.871 L2153.77 208.524 L2149.49 208.524 L2149.49 182.598 L2153.77 182.598 L2153.77 186.626 Q2155.3 184.288 2157.36 183.131 Q2159.45 181.973 2162.15 181.973 Q2166.62 181.973 2168.91 184.751 Q2171.21 187.506 2171.21 192.876 Z" fill="#000000" fill-rule="evenodd" fill-opacity="1" /><path clip-path="url(#clip300)" d="M 0 0 M2179.89 175.237 L2179.89 182.598 L2188.66 182.598 L2188.66 185.908 L2179.89 185.908 L2179.89 199.982 Q2179.89 203.154 2180.74 204.057 Q2181.62 204.959 2184.28 204.959 L2188.66 204.959 L2188.66 208.524 L2184.28 208.524 Q2179.35 208.524 2177.48 206.695 Q2175.6 204.844 2175.6 199.982 L2175.6 185.908 L2172.48 185.908 L2172.48 182.598 L2175.6 182.598 L2175.6 175.237 L2179.89 175.237 Z" fill="#000000" fill-rule="evenodd" fill-opacity="1" /><path clip-path="url(#clip300)" d="M 0 0 M2193.13 182.598 L2197.39 182.598 L2197.39 208.524 L2193.13 208.524 L2193.13 182.598 M2193.13 172.506 L2197.39 172.506 L2197.39 177.899 L2193.13 177.899 L2193.13 172.506 Z" fill="#000000" fill-rule="evenodd" fill-opacity="1" /><path clip-path="url(#clip300)" d="M 0 0 M2201.85 172.506 L2206.11 172.506 L2206.11 208.524 L2201.85 208.524 L2201.85 172.506 Z" fill="#000000" fill-rule="evenodd" fill-opacity="1" /><path clip-path="url(#clip300)" d="M 0 0 M2232.76 194.496 L2232.76 196.58 L2213.17 196.58 Q2213.45 200.978 2215.81 203.293 Q2218.2 205.584 2222.43 205.584 Q2224.89 205.584 2227.18 204.982 Q2229.49 204.381 2231.76 203.177 L2231.76 207.205 Q2229.47 208.177 2227.06 208.686 Q2224.65 209.195 2222.18 209.195 Q2215.97 209.195 2212.34 205.584 Q2208.73 201.973 2208.73 195.816 Q2208.73 189.45 2212.15 185.723 Q2215.6 181.973 2221.44 181.973 Q2226.67 181.973 2229.7 185.353 Q2232.76 188.709 2232.76 194.496 M2228.5 193.246 Q2228.45 189.751 2226.53 187.668 Q2224.63 185.584 2221.48 185.584 Q2217.92 185.584 2215.77 187.598 Q2213.64 189.612 2213.31 193.27 L2228.5 193.246 Z" fill="#000000" fill-rule="evenodd" fill-opacity="1" /><circle clip-path="url(#clip300)" cx="1626.28" cy="251.724" r="23" fill="#e26f46" fill-rule="evenodd" fill-opacity="1" stroke="#000000" stroke-opacity="1" stroke-width="5.12"/>
<path clip-path="url(#clip300)" d="M 0 0 M1710.28 234.444 L1739.52 234.444 L1739.52 238.379 L1727.25 238.379 L1727.25 269.004 L1722.55 269.004 L1722.55 238.379 L1710.28 238.379 L1710.28 234.444 Z" fill="#000000" fill-rule="evenodd" fill-opacity="1" /><path clip-path="url(#clip300)" d="M 0 0 M1752.04 247.06 Q1751.32 246.643 1750.47 246.458 Q1749.63 246.25 1748.61 246.25 Q1745 246.25 1743.06 248.611 Q1741.14 250.949 1741.14 255.347 L1741.14 269.004 L1736.86 269.004 L1736.86 243.078 L1741.14 243.078 L1741.14 247.106 Q1742.48 244.745 1744.63 243.611 Q1746.79 242.453 1749.86 242.453 Q1750.3 242.453 1750.84 242.523 Q1751.37 242.569 1752.02 242.685 L1752.04 247.06 Z" fill="#000000" fill-rule="evenodd" fill-opacity="1" /><path clip-path="url(#clip300)" d="M 0 0 M1756.07 258.773 L1756.07 243.078 L1760.33 243.078 L1760.33 258.611 Q1760.33 262.291 1761.76 264.143 Q1763.2 265.972 1766.07 265.972 Q1769.52 265.972 1771.51 263.773 Q1773.52 261.574 1773.52 257.777 L1773.52 243.078 L1777.78 243.078 L1777.78 269.004 L1773.52 269.004 L1773.52 265.023 Q1771.97 267.384 1769.91 268.541 Q1767.87 269.675 1765.17 269.675 Q1760.7 269.675 1758.38 266.898 Q1756.07 264.12 1756.07 258.773 M1766.79 242.453 L1766.79 242.453 Z" fill="#000000" fill-rule="evenodd" fill-opacity="1" /><path clip-path="url(#clip300)" d="M 0 0 M1804.42 254.976 L1804.42 257.06 L1784.84 257.06 Q1785.12 261.458 1787.48 263.773 Q1789.86 266.064 1794.1 266.064 Q1796.55 266.064 1798.85 265.462 Q1801.16 264.861 1803.43 263.657 L1803.43 267.685 Q1801.14 268.657 1798.73 269.166 Q1796.32 269.675 1793.85 269.675 Q1787.64 269.675 1784.01 266.064 Q1780.4 262.453 1780.4 256.296 Q1780.4 249.93 1783.82 246.203 Q1787.27 242.453 1793.11 242.453 Q1798.34 242.453 1801.37 245.833 Q1804.42 249.189 1804.42 254.976 M1800.17 253.726 Q1800.12 250.231 1798.2 248.148 Q1796.3 246.064 1793.15 246.064 Q1789.59 246.064 1787.43 248.078 Q1785.3 250.092 1784.98 253.75 L1800.17 253.726 Z" fill="#000000" fill-rule="evenodd" fill-opacity="1" /><path clip-path="url(#clip300)" d="M 0 0 M1828.08 265.115 L1828.08 278.865 L1823.8 278.865 L1823.8 243.078 L1828.08 243.078 L1828.08 247.013 Q1829.42 244.699 1831.46 243.588 Q1833.52 242.453 1836.37 242.453 Q1841.09 242.453 1844.03 246.203 Q1846.99 249.953 1846.99 256.064 Q1846.99 262.175 1844.03 265.925 Q1841.09 269.675 1836.37 269.675 Q1833.52 269.675 1831.46 268.564 Q1829.42 267.43 1828.08 265.115 M1842.57 256.064 Q1842.57 251.365 1840.63 248.703 Q1838.71 246.018 1835.33 246.018 Q1831.95 246.018 1830 248.703 Q1828.08 251.365 1828.08 256.064 Q1828.08 260.763 1830 263.449 Q1831.95 266.111 1835.33 266.111 Q1838.71 266.111 1840.63 263.449 Q1842.57 260.763 1842.57 256.064 Z" fill="#000000" fill-rule="evenodd" fill-opacity="1" /><path clip-path="url(#clip300)" d="M 0 0 M1861.51 246.064 Q1858.08 246.064 1856.09 248.75 Q1854.1 251.412 1854.1 256.064 Q1854.1 260.717 1856.07 263.402 Q1858.06 266.064 1861.51 266.064 Q1864.91 266.064 1866.9 263.379 Q1868.89 260.694 1868.89 256.064 Q1868.89 251.458 1866.9 248.773 Q1864.91 246.064 1861.51 246.064 M1861.51 242.453 Q1867.06 242.453 1870.23 246.064 Q1873.41 249.675 1873.41 256.064 Q1873.41 262.43 1870.23 266.064 Q1867.06 269.675 1861.51 269.675 Q1855.93 269.675 1852.76 266.064 Q1849.61 262.43 1849.61 256.064 Q1849.61 249.675 1852.76 246.064 Q1855.93 242.453 1861.51 242.453 Z" fill="#000000" fill-rule="evenodd" fill-opacity="1" /><path clip-path="url(#clip300)" d="M 0 0 M1894.4 243.842 L1894.4 247.87 Q1892.6 246.944 1890.65 246.481 Q1888.71 246.018 1886.62 246.018 Q1883.45 246.018 1881.86 246.99 Q1880.28 247.963 1880.28 249.907 Q1880.28 251.388 1881.42 252.245 Q1882.55 253.078 1885.98 253.842 L1887.43 254.166 Q1891.97 255.138 1893.87 256.921 Q1895.79 258.68 1895.79 261.851 Q1895.79 265.462 1892.92 267.569 Q1890.07 269.675 1885.07 269.675 Q1882.99 269.675 1880.72 269.259 Q1878.48 268.865 1875.98 268.055 L1875.98 263.657 Q1878.34 264.884 1880.63 265.509 Q1882.92 266.111 1885.17 266.111 Q1888.17 266.111 1889.79 265.092 Q1891.42 264.05 1891.42 262.175 Q1891.42 260.439 1890.23 259.513 Q1889.08 258.587 1885.12 257.731 L1883.64 257.384 Q1879.68 256.55 1877.92 254.838 Q1876.16 253.101 1876.16 250.092 Q1876.16 246.435 1878.75 244.444 Q1881.35 242.453 1886.11 242.453 Q1888.48 242.453 1890.56 242.801 Q1892.64 243.148 1894.4 243.842 Z" fill="#000000" fill-rule="evenodd" fill-opacity="1" /><path clip-path="url(#clip300)" d="M 0 0 M1900.26 243.078 L1904.52 243.078 L1904.52 269.004 L1900.26 269.004 L1900.26 243.078 M1900.26 232.986 L1904.52 232.986 L1904.52 238.379 L1900.26 238.379 L1900.26 232.986 Z" fill="#000000" fill-rule="evenodd" fill-opacity="1" /><path clip-path="url(#clip300)" d="M 0 0 M1913.2 235.717 L1913.2 243.078 L1921.97 243.078 L1921.97 246.388 L1913.2 246.388 L1913.2 260.462 Q1913.2 263.634 1914.05 264.537 Q1914.93 265.439 1917.6 265.439 L1921.97 265.439 L1921.97 269.004 L1917.6 269.004 Q1912.67 269.004 1910.79 267.175 Q1908.92 265.324 1908.92 260.462 L1908.92 246.388 L1905.79 246.388 L1905.79 243.078 L1908.92 243.078 L1908.92 235.717 L1913.2 235.717 Z" fill="#000000" fill-rule="evenodd" fill-opacity="1" /><path clip-path="url(#clip300)" d="M 0 0 M1926.44 243.078 L1930.7 243.078 L1930.7 269.004 L1926.44 269.004 L1926.44 243.078 M1926.44 232.986 L1930.7 232.986 L1930.7 238.379 L1926.44 238.379 L1926.44 232.986 Z" fill="#000000" fill-rule="evenodd" fill-opacity="1" /><path clip-path="url(#clip300)" d="M 0 0 M1945.21 246.064 Q1941.79 246.064 1939.79 248.75 Q1937.8 251.412 1937.8 256.064 Q1937.8 260.717 1939.77 263.402 Q1941.76 266.064 1945.21 266.064 Q1948.61 266.064 1950.6 263.379 Q1952.6 260.694 1952.6 256.064 Q1952.6 251.458 1950.6 248.773 Q1948.61 246.064 1945.21 246.064 M1945.21 242.453 Q1950.77 242.453 1953.94 246.064 Q1957.11 249.675 1957.11 256.064 Q1957.11 262.43 1953.94 266.064 Q1950.77 269.675 1945.21 269.675 Q1939.63 269.675 1936.46 266.064 Q1933.31 262.43 1933.31 256.064 Q1933.31 249.675 1936.46 246.064 Q1939.63 242.453 1945.21 242.453 Z" fill="#000000" fill-rule="evenodd" fill-opacity="1" /><path clip-path="url(#clip300)" d="M 0 0 M1983.13 253.356 L1983.13 269.004 L1978.87 269.004 L1978.87 253.495 Q1978.87 249.814 1977.43 247.986 Q1976 246.157 1973.13 246.157 Q1969.68 246.157 1967.69 248.356 Q1965.7 250.555 1965.7 254.351 L1965.7 269.004 L1961.41 269.004 L1961.41 243.078 L1965.7 243.078 L1965.7 247.106 Q1967.22 244.768 1969.29 243.611 Q1971.37 242.453 1974.08 242.453 Q1978.54 242.453 1980.84 245.231 Q1983.13 247.986 1983.13 253.356 Z" fill="#000000" fill-rule="evenodd" fill-opacity="1" /><path clip-path="url(#clip300)" d="M 0 0 M2004.12 243.842 L2004.12 247.87 Q2002.32 246.944 2000.37 246.481 Q1998.43 246.018 1996.35 246.018 Q1993.17 246.018 1991.58 246.99 Q1990 247.963 1990 249.907 Q1990 251.388 1991.14 252.245 Q1992.27 253.078 1995.7 253.842 L1997.16 254.166 Q2001.69 255.138 2003.59 256.921 Q2005.51 258.68 2005.51 261.851 Q2005.51 265.462 2002.64 267.569 Q1999.79 269.675 1994.79 269.675 Q1992.71 269.675 1990.44 269.259 Q1988.2 268.865 1985.7 268.055 L1985.7 263.657 Q1988.06 264.884 1990.35 265.509 Q1992.64 266.111 1994.89 266.111 Q1997.9 266.111 1999.52 265.092 Q2001.14 264.05 2001.14 262.175 Q2001.14 260.439 1999.96 259.513 Q1998.8 258.587 1994.84 257.731 L1993.36 257.384 Q1989.4 256.55 1987.64 254.838 Q1985.88 253.101 1985.88 250.092 Q1985.88 246.435 1988.47 244.444 Q1991.07 242.453 1995.84 242.453 Q1998.2 242.453 2000.28 242.801 Q2002.36 243.148 2004.12 243.842 Z" fill="#000000" fill-rule="evenodd" fill-opacity="1" /><circle clip-path="url(#clip300)" cx="1626.28" cy="312.204" r="23" fill="#3da44d" fill-rule="evenodd" fill-opacity="1" stroke="#000000" stroke-opacity="1" stroke-width="5.12"/>
<path clip-path="url(#clip300)" d="M 0 0 M1710.28 294.924 L1717.25 294.924 L1726.07 318.442 L1734.93 294.924 L1741.9 294.924 L1741.9 329.484 L1737.34 329.484 L1737.34 299.137 L1728.43 322.841 L1723.73 322.841 L1714.82 299.137 L1714.82 329.484 L1710.28 329.484 L1710.28 294.924 Z" fill="#000000" fill-rule="evenodd" fill-opacity="1" /><path clip-path="url(#clip300)" d="M 0 0 M1768.55 315.456 L1768.55 317.54 L1748.96 317.54 Q1749.24 321.938 1751.6 324.253 Q1753.99 326.544 1758.22 326.544 Q1760.68 326.544 1762.97 325.942 Q1765.28 325.341 1767.55 324.137 L1767.55 328.165 Q1765.26 329.137 1762.85 329.646 Q1760.44 330.155 1757.97 330.155 Q1751.76 330.155 1748.13 326.544 Q1744.52 322.933 1744.52 316.776 Q1744.52 310.41 1747.94 306.683 Q1751.39 302.933 1757.23 302.933 Q1762.46 302.933 1765.49 306.313 Q1768.55 309.669 1768.55 315.456 M1764.29 314.206 Q1764.24 310.711 1762.32 308.628 Q1760.42 306.544 1757.27 306.544 Q1753.71 306.544 1751.55 308.558 Q1749.43 310.572 1749.1 314.23 L1764.29 314.206 Z" fill="#000000" fill-rule="evenodd" fill-opacity="1" /><path clip-path="url(#clip300)" d="M 0 0 M1784.8 316.452 Q1779.63 316.452 1777.64 317.632 Q1775.65 318.813 1775.65 321.66 Q1775.65 323.929 1777.13 325.271 Q1778.64 326.591 1781.21 326.591 Q1784.75 326.591 1786.88 324.091 Q1789.03 321.567 1789.03 317.401 L1789.03 316.452 L1784.8 316.452 M1793.29 314.693 L1793.29 329.484 L1789.03 329.484 L1789.03 325.549 Q1787.57 327.91 1785.4 329.044 Q1783.22 330.155 1780.07 330.155 Q1776.09 330.155 1773.73 327.933 Q1771.39 325.688 1771.39 321.938 Q1771.39 317.563 1774.31 315.341 Q1777.25 313.118 1783.06 313.118 L1789.03 313.118 L1789.03 312.702 Q1789.03 309.762 1787.09 308.165 Q1785.17 306.544 1781.67 306.544 Q1779.45 306.544 1777.34 307.077 Q1775.24 307.609 1773.29 308.674 L1773.29 304.739 Q1775.63 303.836 1777.83 303.396 Q1780.03 302.933 1782.11 302.933 Q1787.74 302.933 1790.51 305.85 Q1793.29 308.767 1793.29 314.693 Z" fill="#000000" fill-rule="evenodd" fill-opacity="1" /><path clip-path="url(#clip300)" d="M 0 0 M1814.29 304.322 L1814.29 308.35 Q1812.48 307.424 1810.54 306.961 Q1808.59 306.498 1806.51 306.498 Q1803.34 306.498 1801.74 307.47 Q1800.17 308.443 1800.17 310.387 Q1800.17 311.868 1801.3 312.725 Q1802.43 313.558 1805.86 314.322 L1807.32 314.646 Q1811.86 315.618 1813.75 317.401 Q1815.67 319.16 1815.67 322.331 Q1815.67 325.942 1812.8 328.049 Q1809.96 330.155 1804.96 330.155 Q1802.87 330.155 1800.61 329.739 Q1798.36 329.345 1795.86 328.535 L1795.86 324.137 Q1798.22 325.364 1800.51 325.989 Q1802.8 326.591 1805.05 326.591 Q1808.06 326.591 1809.68 325.572 Q1811.3 324.53 1811.3 322.655 Q1811.3 320.919 1810.12 319.993 Q1808.96 319.067 1805 318.211 L1803.52 317.864 Q1799.56 317.03 1797.8 315.318 Q1796.05 313.581 1796.05 310.572 Q1796.05 306.915 1798.64 304.924 Q1801.23 302.933 1806 302.933 Q1808.36 302.933 1810.44 303.281 Q1812.53 303.628 1814.29 304.322 Z" fill="#000000" fill-rule="evenodd" fill-opacity="1" /><path clip-path="url(#clip300)" d="M 0 0 M1819.7 319.253 L1819.7 303.558 L1823.96 303.558 L1823.96 319.091 Q1823.96 322.771 1825.4 324.623 Q1826.83 326.452 1829.7 326.452 Q1833.15 326.452 1835.14 324.253 Q1837.16 322.054 1837.16 318.257 L1837.16 303.558 L1841.42 303.558 L1841.42 329.484 L1837.16 329.484 L1837.16 325.503 Q1835.61 327.864 1833.55 329.021 Q1831.51 330.155 1828.8 330.155 Q1824.33 330.155 1822.02 327.378 Q1819.7 324.6 1819.7 319.253 M1830.42 302.933 L1830.42 302.933 Z" fill="#000000" fill-rule="evenodd" fill-opacity="1" /><path clip-path="url(#clip300)" d="M 0 0 M1860.91 307.54 Q1860.19 307.123 1859.33 306.938 Q1858.5 306.73 1857.48 306.73 Q1853.87 306.73 1851.92 309.091 Q1850 311.429 1850 315.827 L1850 329.484 L1845.72 329.484 L1845.72 303.558 L1850 303.558 L1850 307.586 Q1851.35 305.225 1853.5 304.091 Q1855.65 302.933 1858.73 302.933 Q1859.17 302.933 1859.7 303.003 Q1860.23 303.049 1860.88 303.165 L1860.91 307.54 Z" fill="#000000" fill-rule="evenodd" fill-opacity="1" /><path clip-path="url(#clip300)" d="M 0 0 M1886.51 315.456 L1886.51 317.54 L1866.92 317.54 Q1867.2 321.938 1869.56 324.253 Q1871.95 326.544 1876.18 326.544 Q1878.64 326.544 1880.93 325.942 Q1883.24 325.341 1885.51 324.137 L1885.51 328.165 Q1883.22 329.137 1880.81 329.646 Q1878.41 330.155 1875.93 330.155 Q1869.73 330.155 1866.09 326.544 Q1862.48 322.933 1862.48 316.776 Q1862.48 310.41 1865.91 306.683 Q1869.36 302.933 1875.19 302.933 Q1880.42 302.933 1883.45 306.313 Q1886.51 309.669 1886.51 315.456 M1882.25 314.206 Q1882.2 310.711 1880.28 308.628 Q1878.38 306.544 1875.23 306.544 Q1871.67 306.544 1869.52 308.558 Q1867.39 310.572 1867.06 314.23 L1882.25 314.206 Z" fill="#000000" fill-rule="evenodd" fill-opacity="1" /><path clip-path="url(#clip300)" d="M 0 0 M1908.04 307.493 L1908.04 293.466 L1912.29 293.466 L1912.29 329.484 L1908.04 329.484 L1908.04 325.595 Q1906.69 327.91 1904.63 329.044 Q1902.6 330.155 1899.73 330.155 Q1895.03 330.155 1892.06 326.405 Q1889.12 322.655 1889.12 316.544 Q1889.12 310.433 1892.06 306.683 Q1895.03 302.933 1899.73 302.933 Q1902.6 302.933 1904.63 304.068 Q1906.69 305.179 1908.04 307.493 M1893.52 316.544 Q1893.52 321.243 1895.44 323.929 Q1897.39 326.591 1900.77 326.591 Q1904.15 326.591 1906.09 323.929 Q1908.04 321.243 1908.04 316.544 Q1908.04 311.845 1906.09 309.183 Q1904.15 306.498 1900.77 306.498 Q1897.39 306.498 1895.44 309.183 Q1893.52 311.845 1893.52 316.544 Z" fill="#000000" fill-rule="evenodd" fill-opacity="1" /><path clip-path="url(#clip300)" d="M 0 0 M1935.95 325.595 L1935.95 339.345 L1931.67 339.345 L1931.67 303.558 L1935.95 303.558 L1935.95 307.493 Q1937.29 305.179 1939.33 304.068 Q1941.39 302.933 1944.24 302.933 Q1948.96 302.933 1951.9 306.683 Q1954.86 310.433 1954.86 316.544 Q1954.86 322.655 1951.9 326.405 Q1948.96 330.155 1944.24 330.155 Q1941.39 330.155 1939.33 329.044 Q1937.29 327.91 1935.95 325.595 M1950.44 316.544 Q1950.44 311.845 1948.5 309.183 Q1946.58 306.498 1943.2 306.498 Q1939.82 306.498 1937.87 309.183 Q1935.95 311.845 1935.95 316.544 Q1935.95 321.243 1937.87 323.929 Q1939.82 326.591 1943.2 326.591 Q1946.58 326.591 1948.5 323.929 Q1950.44 321.243 1950.44 316.544 Z" fill="#000000" fill-rule="evenodd" fill-opacity="1" /><path clip-path="url(#clip300)" d="M 0 0 M1969.38 306.544 Q1965.95 306.544 1963.96 309.23 Q1961.97 311.892 1961.97 316.544 Q1961.97 321.197 1963.94 323.882 Q1965.93 326.544 1969.38 326.544 Q1972.78 326.544 1974.77 323.859 Q1976.76 321.174 1976.76 316.544 Q1976.76 311.938 1974.77 309.253 Q1972.78 306.544 1969.38 306.544 M1969.38 302.933 Q1974.93 302.933 1978.1 306.544 Q1981.28 310.155 1981.28 316.544 Q1981.28 322.91 1978.1 326.544 Q1974.93 330.155 1969.38 330.155 Q1963.8 330.155 1960.63 326.544 Q1957.48 322.91 1957.48 316.544 Q1957.48 310.155 1960.63 306.544 Q1963.8 302.933 1969.38 302.933 Z" fill="#000000" fill-rule="evenodd" fill-opacity="1" /><path clip-path="url(#clip300)" d="M 0 0 M2002.27 304.322 L2002.27 308.35 Q2000.47 307.424 1998.52 306.961 Q1996.58 306.498 1994.49 306.498 Q1991.32 306.498 1989.72 307.47 Q1988.15 308.443 1988.15 310.387 Q1988.15 311.868 1989.28 312.725 Q1990.42 313.558 1993.85 314.322 L1995.3 314.646 Q1999.84 315.618 2001.74 317.401 Q2003.66 319.16 2003.66 322.331 Q2003.66 325.942 2000.79 328.049 Q1997.94 330.155 1992.94 330.155 Q1990.86 330.155 1988.59 329.739 Q1986.35 329.345 1983.85 328.535 L1983.85 324.137 Q1986.21 325.364 1988.5 325.989 Q1990.79 326.591 1993.03 326.591 Q1996.04 326.591 1997.66 325.572 Q1999.28 324.53 1999.28 322.655 Q1999.28 320.919 1998.1 319.993 Q1996.95 319.067 1992.99 318.211 L1991.51 317.864 Q1987.55 317.03 1985.79 315.318 Q1984.03 313.581 1984.03 310.572 Q1984.03 306.915 1986.62 304.924 Q1989.22 302.933 1993.98 302.933 Q1996.35 302.933 1998.43 303.281 Q2000.51 303.628 2002.27 304.322 Z" fill="#000000" fill-rule="evenodd" fill-opacity="1" /><path clip-path="url(#clip300)" d="M 0 0 M2008.13 303.558 L2012.39 303.558 L2012.39 329.484 L2008.13 329.484 L2008.13 303.558 M2008.13 293.466 L2012.39 293.466 L2012.39 298.859 L2008.13 298.859 L2008.13 293.466 Z" fill="#000000" fill-rule="evenodd" fill-opacity="1" /><path clip-path="url(#clip300)" d="M 0 0 M2021.07 296.197 L2021.07 303.558 L2029.84 303.558 L2029.84 306.868 L2021.07 306.868 L2021.07 320.942 Q2021.07 324.114 2021.92 325.017 Q2022.8 325.919 2025.47 325.919 L2029.84 325.919 L2029.84 329.484 L2025.47 329.484 Q2020.53 329.484 2018.66 327.655 Q2016.78 325.804 2016.78 320.942 L2016.78 306.868 L2013.66 306.868 L2013.66 303.558 L2016.78 303.558 L2016.78 296.197 L2021.07 296.197 Z" fill="#000000" fill-rule="evenodd" fill-opacity="1" /><path clip-path="url(#clip300)" d="M 0 0 M2034.31 303.558 L2038.57 303.558 L2038.57 329.484 L2034.31 329.484 L2034.31 303.558 M2034.31 293.466 L2038.57 293.466 L2038.57 298.859 L2034.31 298.859 L2034.31 293.466 Z" fill="#000000" fill-rule="evenodd" fill-opacity="1" /><path clip-path="url(#clip300)" d="M 0 0 M2053.08 306.544 Q2049.66 306.544 2047.66 309.23 Q2045.67 311.892 2045.67 316.544 Q2045.67 321.197 2047.64 323.882 Q2049.63 326.544 2053.08 326.544 Q2056.48 326.544 2058.47 323.859 Q2060.47 321.174 2060.47 316.544 Q2060.47 311.938 2058.47 309.253 Q2056.48 306.544 2053.08 306.544 M2053.08 302.933 Q2058.64 302.933 2061.81 306.544 Q2064.98 310.155 2064.98 316.544 Q2064.98 322.91 2061.81 326.544 Q2058.64 330.155 2053.08 330.155 Q2047.5 330.155 2044.33 326.544 Q2041.18 322.91 2041.18 316.544 Q2041.18 310.155 2044.33 306.544 Q2047.5 302.933 2053.08 302.933 Z" fill="#000000" fill-rule="evenodd" fill-opacity="1" /><path clip-path="url(#clip300)" d="M 0 0 M2091 313.836 L2091 329.484 L2086.74 329.484 L2086.74 313.975 Q2086.74 310.294 2085.3 308.466 Q2083.87 306.637 2081 306.637 Q2077.55 306.637 2075.56 308.836 Q2073.57 311.035 2073.57 314.831 L2073.57 329.484 L2069.28 329.484 L2069.28 303.558 L2073.57 303.558 L2073.57 307.586 Q2075.09 305.248 2077.15 304.091 Q2079.24 302.933 2081.95 302.933 Q2086.41 302.933 2088.71 305.711 Q2091 308.466 2091 313.836 Z" fill="#000000" fill-rule="evenodd" fill-opacity="1" /><path clip-path="url(#clip300)" d="M 0 0 M2111.99 304.322 L2111.99 308.35 Q2110.19 307.424 2108.24 306.961 Q2106.3 306.498 2104.21 306.498 Q2101.04 306.498 2099.45 307.47 Q2097.87 308.443 2097.87 310.387 Q2097.87 311.868 2099.01 312.725 Q2100.14 313.558 2103.57 314.322 L2105.03 314.646 Q2109.56 315.618 2111.46 317.401 Q2113.38 319.16 2113.38 322.331 Q2113.38 325.942 2110.51 328.049 Q2107.66 330.155 2102.66 330.155 Q2100.58 330.155 2098.31 329.739 Q2096.07 329.345 2093.57 328.535 L2093.57 324.137 Q2095.93 325.364 2098.22 325.989 Q2100.51 326.591 2102.76 326.591 Q2105.77 326.591 2107.39 325.572 Q2109.01 324.53 2109.01 322.655 Q2109.01 320.919 2107.83 319.993 Q2106.67 319.067 2102.71 318.211 L2101.23 317.864 Q2097.27 317.03 2095.51 315.318 Q2093.75 313.581 2093.75 310.572 Q2093.75 306.915 2096.34 304.924 Q2098.94 302.933 2103.71 302.933 Q2106.07 302.933 2108.15 303.281 Q2110.23 303.628 2111.99 304.322 Z" fill="#000000" fill-rule="evenodd" fill-opacity="1" /></svg>
